<svg id="Photo" xmlns="http://www.w3.org/2000/svg" xmlns:xlink="http://www.w3.org/1999/xlink" width="28.049" height="21.049" viewBox="0 0 28.049 21.049">
  <defs>
    <clipPath id="clip-path">
      <rect id="Rectangle_10998" data-name="Rectangle 10998" width="28.049" height="21.049" fill="rgba(255,255,255,0.75)"/>
    </clipPath>
  </defs>
  <g id="Group_28565" data-name="Group 28565" clip-path="url(#clip-path)">
    <path id="Path_10195" data-name="Path 10195" d="M3.4,3.52l.052-1.14H5.907V3.452a1.225,1.225,0,0,0,1.42-.4C8.01,2.235,8.771,1.477,9.514.707A2.276,2.276,0,0,1,11.3,0c1.849.035,3.7.041,5.548,0a2.431,2.431,0,0,1,1.929.78c.751.789,1.472,1.608,2.241,2.379A1.264,1.264,0,0,0,21.8,3.5c1.3.035,2.608.009,3.913.018A2.171,2.171,0,0,1,28.044,5.86q.011,6.337,0,12.673a2.339,2.339,0,0,1-2.513,2.515H2.753A2.536,2.536,0,0,1,0,18.285Q0,12.24,0,6.2A2.393,2.393,0,0,1,2.656,3.52c.23,0,.461,0,.744,0M14.107,19.88H25.383c1.085,0,1.492-.39,1.493-1.461q.006-6.223,0-12.445c0-.926-.35-1.28-1.263-1.284-1.422-.006-2.844-.021-4.265.009a1.354,1.354,0,0,1-1.161-.518c-.7-.832-1.439-1.638-2.158-2.458a1.521,1.521,0,0,0-1.273-.554c-1.811.036-3.623-.008-5.433.032a1.611,1.611,0,0,0-1.019.407C9.5,2.422,8.745,3.293,8,4.164a1.292,1.292,0,0,1-1.09.535c-1.441-.03-2.882-.018-4.323-.008C1.6,4.7,1.17,5.138,1.17,6.121q0,6.076,0,12.153a1.4,1.4,0,0,0,1.6,1.606q5.667,0,11.335,0" transform="translate(0 0)" fill="rgba(255,255,255,0.75)"/>
    <path id="Path_10196" data-name="Path 10196" d="M153.638,119.86a6.238,6.238,0,1,1,6.224-6.243,6.216,6.216,0,0,1-6.224,6.243m-.03-1.168a5.07,5.07,0,1,0-5.046-5.055,5.041,5.041,0,0,0,5.046,5.055" transform="translate(-139.605 -101.709)" fill="rgba(255,255,255,0.75)"/>
    <path id="Path_10197" data-name="Path 10197" d="M399.766,111.391c.232,1.212.073,1.372-1.147,1.15v-1.15Z" transform="translate(-377.556 -105.505)" fill="rgba(255,255,255,0.75)"/>
    <path id="Path_10198" data-name="Path 10198" d="M225.862,183.874a2.335,2.335,0,1,1-4.67-.033,2.335,2.335,0,0,1,4.67.033" transform="translate(-209.504 -171.939)" fill="rgba(255,255,255,0.75)"/>
  </g>
</svg>
