<svg width="16" height="14" viewBox="0 0 16 14" fill="none" xmlns="http://www.w3.org/2000/svg">
<path d="M13.359 10.238C15.06 8.72 16 7 16 7C16 7 13 1.5 7.99999 1.5C7.03958 1.50331 6.09005 1.70342 5.20999 2.088L5.97999 2.859C6.62743 2.62315 7.31094 2.50168 7.99999 2.5C10.12 2.5 11.879 3.668 13.168 4.957C13.7883 5.58069 14.3445 6.26513 14.828 7C14.77 7.087 14.706 7.183 14.633 7.288C14.298 7.768 13.803 8.408 13.168 9.043C13.003 9.208 12.831 9.371 12.651 9.529L13.359 10.238Z" fill="black"/>
<path d="M11.297 8.17599C11.5201 7.55183 11.5615 6.87714 11.4162 6.23041C11.2708 5.58368 10.9449 4.99151 10.4762 4.52281C10.0075 4.0541 9.41529 3.72813 8.76857 3.58282C8.12184 3.43751 7.44715 3.47883 6.82299 3.70199L7.64599 4.52499C8.0303 4.46998 8.42214 4.50523 8.79046 4.62795C9.15878 4.75067 9.49346 4.95748 9.76798 5.232C10.0425 5.50652 10.2493 5.8412 10.372 6.20952C10.4947 6.57784 10.53 6.96968 10.475 7.35399L11.297 8.17599ZM8.35399 9.47499L9.17599 10.297C8.55183 10.5201 7.87714 10.5615 7.23041 10.4162C6.58368 10.2708 5.99151 9.94488 5.52281 9.47617C5.0541 9.00746 4.72813 8.41529 4.58282 7.76857C4.43751 7.12184 4.47883 6.44715 4.70199 5.82299L5.52499 6.64599C5.46998 7.0303 5.50523 7.42214 5.62795 7.79046C5.75067 8.15878 5.95748 8.49346 6.232 8.76798C6.50652 9.0425 6.8412 9.24931 7.20952 9.37203C7.57784 9.49474 7.96968 9.53 8.35399 9.47499V9.47499Z" fill="black"/>
<path d="M3.35 4.47C3.17 4.63 2.997 4.792 2.832 4.957C2.21165 5.58069 1.65552 6.26512 1.172 7L1.367 7.288C1.702 7.768 2.197 8.408 2.832 9.043C4.121 10.332 5.881 11.5 8 11.5C8.716 11.5 9.39 11.367 10.02 11.14L10.79 11.912C9.90994 12.2965 8.9604 12.4967 8 12.5C3 12.5 0 7 0 7C0 7 0.939 5.279 2.641 3.762L3.349 4.471L3.35 4.47ZM13.646 13.354L1.646 1.354L2.354 0.645996L14.354 12.646L13.646 13.354Z" fill="black"/>
</svg>
