<svg width="32" height="32" viewBox="0 0 32 32" fill="none" xmlns="http://www.w3.org/2000/svg">
<path d="M27.294 4.68298C29.5299 6.91898 31.0525 9.76779 31.6694 12.8691C32.2862 15.9705 31.9696 19.1851 30.7594 22.1064C29.5493 25.0278 27.5001 27.5248 24.8709 29.2816C22.2417 31.0383 19.1507 31.976 15.9886 31.976C12.8265 31.976 9.73532 31.0383 7.10613 29.2816C4.47693 27.5248 2.42769 25.0278 1.21758 22.1064C0.00746119 19.1851 -0.309171 15.9705 0.307666 12.8691C0.924503 9.76779 2.44715 6.91898 4.68303 4.68298C6.16767 3.19828 7.93024 2.02056 9.87004 1.21704C11.8098 0.41352 13.8889 -6.10352e-05 15.9886 -6.10352e-05C18.0882 -6.10352e-05 20.1673 0.41352 22.1071 1.21704C24.0469 2.02056 25.8094 3.19828 27.294 4.68298V4.68298Z" fill="#004893"/>
<g clip-path="url(#clip0_2_3)">
<path d="M13.605 12.277L20.2549 18.9269C20.4215 19.1052 20.5123 19.3416 20.5081 19.5856C20.5039 19.8296 20.4052 20.062 20.2327 20.2345C20.0602 20.4071 19.8273 20.5062 19.5833 20.5104C19.3393 20.5146 19.1034 20.4235 18.9251 20.257L12.2749 13.6071C12.0986 13.4307 11.9995 13.1915 11.9995 12.942C11.9995 12.6926 12.0986 12.4534 12.2749 12.277C12.4513 12.1006 12.6905 12.0016 12.94 12.0016C13.1894 12.0016 13.4286 12.1006 13.605 12.277Z" fill="white"/>
<path d="M20.2559 12.277C20.3433 12.3643 20.4127 12.4681 20.46 12.5822C20.5073 12.6963 20.5316 12.8185 20.5316 12.942C20.5316 13.0656 20.5073 13.1878 20.46 13.3019C20.4127 13.416 20.3433 13.5198 20.2559 13.6071L13.606 20.257C13.4283 20.4275 13.1909 20.5213 12.9447 20.5187C12.6984 20.5161 12.463 20.4175 12.2889 20.2433C12.1148 20.0691 12.0159 19.8333 12.0135 19.5871C12.0111 19.3408 12.1053 19.1035 12.276 18.9259L18.9261 12.276C19.1027 12.0999 19.3418 12.0009 19.5911 12.0011C19.8405 12.0013 20.0796 12.1006 20.2559 12.277V12.277Z" fill="white"/>
</g>
<defs>
<clipPath id="clip0_2_3">
<rect width="8.531" height="8.531" fill="white" transform="translate(12 12)"/>
</clipPath>
</defs>
</svg>
