<svg xmlns="http://www.w3.org/2000/svg" xmlns:xlink="http://www.w3.org/1999/xlink" width="46.149" height="46.15" viewBox="0 0 46.149 46.15">
  <defs>
    <clipPath id="clip-path">
      <rect id="Rectangle_11142" data-name="Rectangle 11142" width="46.146" height="46.146" fill="none"/>
    </clipPath>
  </defs>
  <g id="Group_28980" data-name="Group 28980" transform="translate(0 0)">
    <path id="Path_10320" data-name="Path 10320" d="M2.446,1.269,3.4,10.283h7.855L9.469,1.269Z" transform="translate(30.913 16.036)" fill="#e2e2e2"/>
    <path id="Path_10321" data-name="Path 10321" d="M10.1,1.269H2l-.968,9.014H19.15L18.2,1.269Z" transform="translate(12.979 16.036)" fill="#e2e2e2"/>
    <path id="Path_10322" data-name="Path 10322" d="M2.533,2.088l.559,5.291h8.577L10.605,2.088Z" transform="translate(32.005 26.385)" fill="#e2e2e2"/>
    <path id="Path_10323" data-name="Path 10323" d="M1.864,2.088.132,10.747H31.619l-.914-8.659Z" transform="translate(1.672 26.385)" fill="#e2e2e2"/>
    <path id="Path_10324" data-name="Path 10324" d="M2.091,1.269l-1.8,9.014H8.159l.955-9.014Z" transform="translate(3.678 16.036)" fill="#c6c6c6"/>
    <path id="Path_10325" data-name="Path 10325" d="M1.609,2.882.873,9.728H23.21l-.736-6.846Z" transform="translate(11.033 36.416)" fill="#c6c6c6"/>
    <path id="Path_10326" data-name="Path 10326" d="M1.364,2.882,0,9.728H9.736l.723-6.846Z" transform="translate(0 36.416)" fill="#e2e2e2"/>
    <path id="Path_10327" data-name="Path 10327" d="M2.591,2.635,3.668,12.862H13.4L11.373,2.635Z" transform="translate(32.744 33.288)" fill="#c6c6c6"/>
    <path id="Path_10328" data-name="Path 10328" d="M29.909,1.269l.955,9.014H12.741l.968-9.014H11.527l-.941,9.014H2.7l-.436,2.155H31.109l.914,8.659H.536L.1,23.265H9.2l-.723,6.846h2.168l.736-6.846H32.241l.736,6.846h2.168L34.069,19.883h8.782l-.45-2.155H33.837l-.559-5.291H41.35l-.45-2.155H33.046l-.955-9.014Z" transform="translate(1.265 16.036)" fill="#525c6b"/>
    <g id="Group_28853" data-name="Group 28853" transform="translate(0.001 0)">
      <g id="Group_28852" data-name="Group 28852" clip-path="url(#clip-path)">
        <path id="Path_10329" data-name="Path 10329" d="M12.11,5.358c0,1.991-2.427,3.614-5.414,3.614S1.3,7.349,1.3,5.358,3.723,1.744,6.7,1.744,12.11,3.367,12.11,5.358" transform="translate(16.377 22.035)" fill="#ffbd66"/>
        <path id="Path_10330" data-name="Path 10330" d="M10.07,0A9.035,9.035,0,0,0,1.029,9.041c0,7.214,9.041,18.355,9.041,18.355s9.041-11.141,9.041-18.355A9.044,9.044,0,0,0,10.07,0" transform="translate(13.003 -0.004)" fill="#2ba0bf"/>
        <path id="Path_10331" data-name="Path 10331" d="M10.166,4.752a4.4,4.4,0,1,1-4.4-4.4,4.411,4.411,0,0,1,4.4,4.4" transform="translate(17.312 4.381)" fill="#fff"/>
      </g>
    </g>
  </g>
</svg>
