<svg xmlns="http://www.w3.org/2000/svg" xmlns:xlink="http://www.w3.org/1999/xlink" width="89" height="89" viewBox="0 0 89 89">
  <defs>
    <clipPath id="clip-path">
      <rect id="Rectangle_11178" data-name="Rectangle 11178" width="89" height="89" transform="translate(0.154 0.154)" fill="none"/>
    </clipPath>
  </defs>
  <g id="Group_28931" data-name="Group 28931" transform="translate(-0.154 -0.154)" clip-path="url(#clip-path)">
    <path id="Path_10360" data-name="Path 10360" d="M9.308,10.657c2.916,2.945,5.236,5.563,4.968,7.884a16.555,16.555,0,0,1,2.618-3.392c2.707-2.678,0-5.891-3.659-9.55S6.363-.8,3.655,1.94A27.3,27.3,0,0,0,.115,6.224c2.648-1.666,5.712.982,9.193,4.433" transform="translate(3.551 24.068)" fill="#c6c6c6"/>
    <path id="Path_10361" data-name="Path 10361" d="M54.735,48.063c-2.886-2.856-5.474-5.177-7.795-4.968-6.991,4.076-13.15-1.726-20.379-8.985-7.2-7.2-12.971-13.328-8.985-20.29.268-2.321-2.053-4.939-4.968-7.884C9.128,2.486,6.063-.162,3.416,1.5c-7.5,11.335-2.588,24.99,14.1,41.68,16.69,16.72,30.375,21.6,41.68,14.131,1.7-2.678-.982-5.772-4.463-9.252" transform="translate(0.251 28.789)" fill="#7a8e9b"/>
    <path id="Path_10362" data-name="Path 10362" d="M4.881,3.383a16.241,16.241,0,0,1-3.3,2.588c2.291-.208,4.909,2.112,7.765,4.968,3.511,3.481,6.158,6.575,4.492,9.223a28.723,28.723,0,0,0,4.284-3.54c2.707-2.707-.03-5.92-3.689-9.58C10.8,3.383,7.589.675,4.881,3.383" transform="translate(45.642 65.913)" fill="#c6c6c6"/>
    <path id="Path_10363" data-name="Path 10363" d="M36.729,18.708a17.9,17.9,0,1,0-9.193,15.619l9.193,6.01Z" transform="translate(28.104 24.05)" fill="#f87670"/>
  </g>
</svg>
