<svg width="37" height="41" viewBox="0 0 37 41" fill="none" xmlns="http://www.w3.org/2000/svg">
<path d="M32.0007 13.736C32.3994 13.736 32.7612 13.91 33.0472 14.204C33.3136 14.518 33.4479 14.908 33.409 15.32C33.409 15.456 32.343 28.9358 31.7342 34.6098C31.353 38.0918 29.1083 40.2057 25.7414 40.2637C23.1524 40.3217 20.6218 40.3417 18.1302 40.3417C15.4848 40.3417 12.8978 40.3217 10.3867 40.2637C7.13253 40.1857 4.88594 38.0338 4.52415 34.6098C3.89782 28.9158 2.85136 15.456 2.83191 15.32C2.81246 14.908 2.94472 14.518 3.21315 14.204C3.47768 13.91 3.85892 13.736 4.25961 13.736H32.0007ZM22.252 0.34173C24.0201 0.34173 25.5996 1.57572 26.0567 3.3357L26.3834 4.79569C26.648 5.98567 27.6789 6.82767 28.8654 6.82767H34.6968C35.4748 6.82767 36.1226 7.47366 36.1226 8.29565V9.05564C36.1226 9.85764 35.4748 10.5236 34.6968 10.5236H1.55028C0.77029 10.5236 0.12257 9.85764 0.12257 9.05564V8.29565C0.12257 7.47366 0.77029 6.82767 1.55028 6.82767H7.3817C8.56627 6.82767 9.59718 5.98567 9.86366 4.79769L10.169 3.4337C10.6436 1.57572 12.2056 0.34173 13.9931 0.34173H22.252Z" fill="#004893"/>
</svg>
