<svg xmlns="http://www.w3.org/2000/svg" width="46.959" height="42.009" viewBox="0 0 46.959 42.009">
  <g id="Group_29000" data-name="Group 29000" transform="translate(-109.77 -76.223)">
    <g id="Group_28996" data-name="Group 28996" transform="translate(109.77 76.72)">
      <g id="Group_28995" data-name="Group 28995">
        <path id="Path_10418" data-name="Path 10418" d="M150.231,94.406h-2.79a16.525,16.525,0,0,0-.975-3.612l2.427-1.4a1.03,1.03,0,0,0,.363-1.433l-1.548-2.676a1.018,1.018,0,0,0-1.414-.382l-2.427,1.376a18.245,18.245,0,0,0-2.656-2.637l1.414-2.408a1.025,1.025,0,0,0-.382-1.414l-2.695-1.567a1.034,1.034,0,0,0-1.414.382l-1.4,2.408a18.8,18.8,0,0,0-3.631-.975V77.3a1.032,1.032,0,0,0-1.032-1.051h-3.115a1.032,1.032,0,0,0-1.032,1.051v2.771a19.179,19.179,0,0,0-3.631.975l-1.376-2.408a1.061,1.061,0,0,0-1.433-.382l-2.695,1.567a1.042,1.042,0,0,0-.382,1.414l1.4,2.408a19.1,19.1,0,0,0-2.638,2.637l-2.427-1.376a1.018,1.018,0,0,0-1.414.382l-1.567,2.676a1.058,1.058,0,0,0,.4,1.433l2.408,1.4a16.536,16.536,0,0,0-.975,3.612H110.8a1.044,1.044,0,0,0-1.032,1.051v3.1A1.044,1.044,0,0,0,110.8,99.6h2.79a16.537,16.537,0,0,0,.975,3.612l-2.408,1.4a1.058,1.058,0,0,0-.4,1.433l1.567,2.676a1.018,1.018,0,0,0,1.414.382l2.427-1.376a19.113,19.113,0,0,0,2.638,2.637l-1.4,2.408a1.041,1.041,0,0,0,.382,1.414l2.695,1.548a1.055,1.055,0,0,0,1.433-.363l1.376-2.408a19.177,19.177,0,0,0,3.631.975v2.771a1.044,1.044,0,0,0,1.032,1.051h3.115a1.044,1.044,0,0,0,1.032-1.051v-2.771a18.8,18.8,0,0,0,3.631-.975l1.4,2.408a1.028,1.028,0,0,0,1.414.363l2.695-1.548a1.025,1.025,0,0,0,.382-1.414l-1.414-2.408a18.254,18.254,0,0,0,2.656-2.637l2.427,1.376a1.018,1.018,0,0,0,1.414-.382l1.548-2.676a1.03,1.03,0,0,0-.363-1.433l-2.427-1.4a16.526,16.526,0,0,0,.975-3.612h2.79a1.044,1.044,0,0,0,1.032-1.051v-3.1A1.044,1.044,0,0,0,150.231,94.406Z" transform="translate(-109.77 -76.249)" fill="#f7fdfe"/>
      </g>
    </g>
    <g id="Group_28999" data-name="Group 28999" transform="translate(125.385 76.223)">
      <g id="Group_28997" data-name="Group 28997">
        <path id="Path_10419" data-name="Path 10419" d="M141.931,101.26c0-10.244-15.672-25.037-15.672-25.037s-15.672,14.888-15.672,25.037a15.672,15.672,0,1,0,31.344,0Z" transform="translate(-110.587 -76.223)" fill="#2ba0bf"/>
      </g>
      <g id="Group_28998" data-name="Group 28998" transform="translate(16.456 14.736)">
        <path id="Path_10420" data-name="Path 10420" d="M122.686,88.1a18.042,18.042,0,0,0-4.09-11.1s2.5,14.544-7.148,22.361A11.248,11.248,0,0,0,122.686,88.1Z" transform="translate(-111.448 -76.994)" fill="#59c5ef"/>
      </g>
    </g>
  </g>
</svg>
