<svg xmlns="http://www.w3.org/2000/svg" xmlns:xlink="http://www.w3.org/1999/xlink" width="49.806" height="50.968" viewBox="0 0 49.806 50.968">
  <defs>
    <clipPath id="clip-path">
      <rect id="Rectangle_11141" data-name="Rectangle 11141" width="49.806" height="50.966" fill="none"/>
    </clipPath>
  </defs>
  <g id="Group_28851" data-name="Group 28851" transform="translate(-119.154 -445.595)">
    <g id="Group_28850" data-name="Group 28850" transform="translate(119.154 445.595)">
      <path id="Path_10310" data-name="Path 10310" d="M24.888,0,0,23.426H49.792Z" transform="translate(0.006 0)" fill="#7a8e9b"/>
      <rect id="Rectangle_11140" data-name="Rectangle 11140" width="42.033" height="26.38" transform="translate(3.887 23.428)" fill="#c6c6c6"/>
      <g id="Group_28849" data-name="Group 28849" transform="translate(0 0.002)">
        <g id="Group_28848" data-name="Group 28848" clip-path="url(#clip-path)">
          <path id="Path_10311" data-name="Path 10311" d="M6.379,2.079A5.063,5.063,0,0,0,1.317,7.141V20.549H11.426V7.141A5.05,5.05,0,0,0,6.379,2.079" transform="translate(18.524 29.246)" fill="#fff"/>
          <path id="Path_10312" data-name="Path 10312" d="M3.68,2.079A3.122,3.122,0,0,0,.577,5.2v7.7H6.8V5.2A3.115,3.115,0,0,0,3.68,2.079" transform="translate(8.116 29.246)" fill="#fff"/>
          <path id="Path_10313" data-name="Path 10313" d="M10.684,5.177a4.67,4.67,0,0,0-9.341,0v6.162h9.341Z" transform="translate(18.89 7.347)" fill="#fff"/>
          <path id="Path_10314" data-name="Path 10314" d="M5.419,2.079A3.112,3.112,0,0,0,2.316,5.2v7.7H8.538V5.2A3.125,3.125,0,0,0,5.419,2.079" transform="translate(32.576 29.246)" fill="#fff"/>
          <path id="Path_10315" data-name="Path 10315" d="M3.315,3.5a.788.788,0,0,1-.783.783.768.768,0,1,1,0-1.537.782.782,0,0,1,.783.753" transform="translate(24.797 38.642)" fill="#525c6b"/>
          <path id="Path_10316" data-name="Path 10316" d="M1.126,14.032H7.348a.6.6,0,0,0,.588-.588V5.731a3.7,3.7,0,0,0-7.4,0v7.713a.6.6,0,0,0,.588.588M1.713,8.5H6.775v4.354H1.713ZM4.229,3.215A2.514,2.514,0,0,1,6.76,5.731V7.343H1.713V5.731A2.511,2.511,0,0,1,4.229,3.215" transform="translate(7.567 28.698)" fill="#525c6b"/>
          <path id="Path_10317" data-name="Path 10317" d="M1.876,12.5h9.371a.587.587,0,0,0,.557-.6V5.74a5.25,5.25,0,1,0-10.5,0V11.9a.589.589,0,0,0,.572.6m.6-6.177h8.165v5H2.479Zm4.083-4.67A4.114,4.114,0,0,1,10.6,5.167H2.524a4.1,4.1,0,0,1,4.038-3.51" transform="translate(18.341 6.784)" fill="#525c6b"/>
          <path id="Path_10318" data-name="Path 10318" d="M2.865,14.032H9.087a.6.6,0,0,0,.588-.588V5.731a3.7,3.7,0,0,0-7.4,0v7.713a.588.588,0,0,0,.588.588M3.452,8.5H8.514v4.354H3.452ZM5.968,3.215A2.514,2.514,0,0,1,8.5,5.731V7.343H3.452V5.731A2.511,2.511,0,0,1,5.968,3.215" transform="translate(32.027 28.698)" fill="#525c6b"/>
          <path id="Path_10319" data-name="Path 10319" d="M30.553,19.924V7.675a5.65,5.65,0,0,0-11.3,0V19.924H0v2.335H49.806V19.924ZM20.429,7.675a4.474,4.474,0,0,1,8.949,0V19.924H20.429Z" transform="translate(0 28.712)" fill="#525c6b"/>
        </g>
      </g>
    </g>
  </g>
</svg>
