<svg width="9" height="16" viewBox="0 0 9 16" fill="none" xmlns="http://www.w3.org/2000/svg">
<g clip-path="url(#clip0_32_5)">
<path fill-rule="evenodd" clip-rule="evenodd" d="M0.287495 8.6946L7.29634 15.7132C7.48639 15.8977 7.74028 16.0008 8.00448 16.0008C8.26868 16.0008 8.52257 15.8977 8.71263 15.7132C8.89709 15.5248 9.00049 15.271 9.00049 15.0067C9.00049 14.7424 8.89709 14.4886 8.71263 14.3002L2.40099 8.00064L8.71263 1.70103C8.89709 1.51267 9.00049 1.25892 9.00049 0.994579C9.00049 0.730234 8.89709 0.47649 8.71263 0.288123C8.52257 0.103611 8.26868 0.000488281 8.00448 0.000488281C7.74028 0.000488281 7.48639 0.103611 7.29634 0.288123L0.287495 7.28169C0.103027 7.47005 -0.000367064 7.7238 -0.000367064 7.98814C-0.000367064 8.25249 0.103027 8.50623 0.287495 8.6946V8.6946Z" fill="#254089"/>
</g>
<defs>
<clipPath id="clip0_32_5">
<rect width="9" height="16" fill="white" transform="matrix(-1 0 0 1 9 0)"/>
</clipPath>
</defs>
</svg>
