<svg xmlns="http://www.w3.org/2000/svg" xmlns:xlink="http://www.w3.org/1999/xlink" width="178.05" height="120.403" viewBox="0 0 178.05 120.403">
  <defs>
    <clipPath id="clip-path">
      <rect id="Rectangle_5888" data-name="Rectangle 5888" width="178.05" height="95.022" fill="none"/>
    </clipPath>
  </defs>
  <g id="Group_29015" data-name="Group 29015" transform="translate(-60.754 -216.873)">
    <g id="Group_28556" data-name="Group 28556" transform="translate(60.754 216.873)">
      <g id="Group_15012" data-name="Group 15012">
        <g id="Group_15011" data-name="Group 15011" clip-path="url(#clip-path)">
          <path id="Path_8360" data-name="Path 8360" d="M30.851,7.214s5.76-.394,9.713,3.2a31.179,31.179,0,0,1,4.083,4.346,39.787,39.787,0,0,1,4.8,8.134c1.889,3.764,3.062,5.573,5,9.143,2.313,4.255,3.141,6.947,5.9,10.932,2.631,3.805,3.965,6.312,7.734,8.993,2.839,2.019,4.653,3.238,8.094,3.777A14.191,14.191,0,0,0,84.849,54.7a14.18,14.18,0,0,0,6.076-4.357,19.515,19.515,0,0,1-9.713-2.7,27.38,27.38,0,0,1-9.222-8.287c-5.112-7.82-9.31-17.934-14.52-24.808C53.2,8.914,51.085,6.847,45.6,3.936,43.275,2.7,39.227,1.789,36.426,2.5a9.836,9.836,0,0,0-5.575,4.717" transform="translate(-2.155 -0.157)" fill="#004893"/>
          <path id="Path_8361" data-name="Path 8361" d="M30.851,7.214s5.76-.394,9.713,3.2a31.179,31.179,0,0,1,4.083,4.346,39.787,39.787,0,0,1,4.8,8.134c1.889,3.764,3.062,5.573,5,9.143,2.313,4.255,3.141,6.947,5.9,10.932,2.631,3.805,3.965,6.312,7.734,8.993,2.839,2.019,4.653,3.238,8.094,3.777A14.191,14.191,0,0,0,84.849,54.7a14.18,14.18,0,0,0,6.076-4.357,19.515,19.515,0,0,1-9.713-2.7,27.38,27.38,0,0,1-9.222-8.287c-5.112-7.82-9.31-17.934-14.52-24.808C53.2,8.914,51.085,6.847,45.6,3.936,43.275,2.7,39.227,1.789,36.426,2.5A9.836,9.836,0,0,0,30.851,7.214Z" transform="translate(-2.155 -0.157)" fill="none" stroke="#004893" stroke-width="0.209"/>
          <path id="Path_8362" data-name="Path 8362" d="M74.974,31.074a7.442,7.442,0,0,0,1.889,3.077,8.411,8.411,0,0,0,2.815,1.823,9.429,9.429,0,0,0,4.437.823,11.706,11.706,0,0,0,4.678-1.019,15.914,15.914,0,0,0,4.927-3c3.408-2.75,4.494-5.237,6.638-9.055,3.136-5.587,5.39-10.878,10-16.073,2.52-2.842,7.867-5.743,7.867-5.743C116.851.7,115.609.65,113.81.34a13.626,13.626,0,0,0-6.5.451c-3.8.961-5.681,2.532-8.7,5.038-2.917,2.425-4.124,4.293-6.371,7.35-2.874,3.914-3.206,7-6.3,10.741a21.657,21.657,0,0,1-4.089,4.254,13.183,13.183,0,0,1-4.045,2.312,9.44,9.44,0,0,1-2.842.588" transform="translate(-5.237 -0.009)" fill="#00869d"/>
          <path id="Path_8363" data-name="Path 8363" d="M74.974,31.074a7.442,7.442,0,0,0,1.889,3.077,8.411,8.411,0,0,0,2.815,1.823,9.429,9.429,0,0,0,4.437.823,11.706,11.706,0,0,0,4.678-1.019,15.914,15.914,0,0,0,4.927-3c3.408-2.75,4.494-5.237,6.638-9.055,3.136-5.587,5.39-10.878,10-16.073,2.52-2.842,7.867-5.743,7.867-5.743C116.851.7,115.609.65,113.81.34a13.626,13.626,0,0,0-6.5.451c-3.8.961-5.681,2.532-8.7,5.038-2.917,2.425-4.124,4.293-6.371,7.35-2.874,3.914-3.206,7-6.3,10.741a21.657,21.657,0,0,1-4.089,4.254,13.183,13.183,0,0,1-4.045,2.312A9.44,9.44,0,0,1,74.974,31.074Z" transform="translate(-5.237 -0.009)" fill="none" stroke="#00869d" stroke-width="0.209"/>
          <path id="Path_8364" data-name="Path 8364" d="M82.349,40.383a17.778,17.778,0,0,0,14.112,5.488c5.312-.224,9.115-2.94,13.329-7.155a23.757,23.757,0,0,0,2.548-3.626c1.131-1.776,1.62-2.866,2.646-4.7,1.934-3.467,2.757-5.1,4.9-8.918a61.876,61.876,0,0,1,9.408-13.231c2.521-2.843,9.769-6.3,9.769-6.3a11.773,11.773,0,0,0-4.41-1.568,15.448,15.448,0,0,0-6.928.326c-4.317.9-6.658,2.332-10.094,5.1a29.3,29.3,0,0,0-5.88,6.567c-2.474,3.364-3.218,5.685-5.293,9.31C105,24.215,103.819,26.187,102.7,28.2a28.7,28.7,0,0,1-6.045,7.773c-7.35,5.684-14.309,4.411-14.309,4.411" transform="translate(-5.752 -0.007)" fill="#00869d"/>
          <path id="Path_8365" data-name="Path 8365" d="M82.349,40.383a17.778,17.778,0,0,0,14.112,5.488c5.312-.224,9.115-2.94,13.329-7.155a23.757,23.757,0,0,0,2.548-3.626c1.131-1.776,1.62-2.866,2.646-4.7,1.934-3.467,2.757-5.1,4.9-8.918a61.876,61.876,0,0,1,9.408-13.231c2.521-2.843,9.769-6.3,9.769-6.3a11.773,11.773,0,0,0-4.41-1.568,15.448,15.448,0,0,0-6.928.326c-4.317.9-6.658,2.332-10.094,5.1a29.3,29.3,0,0,0-5.88,6.567c-2.474,3.364-3.218,5.685-5.293,9.31C105,24.215,103.819,26.187,102.7,28.2a28.7,28.7,0,0,1-6.045,7.773C89.307,41.657,82.349,40.383,82.349,40.383Z" transform="translate(-5.752 -0.007)" fill="none" stroke="#00869d" stroke-width="0.209"/>
          <path id="Path_8366" data-name="Path 8366" d="M156.3,7.482s-5.76-.394-9.713,3.2a31.084,31.084,0,0,0-4.084,4.346,39.783,39.783,0,0,0-4.8,8.134c-1.89,3.764-3.062,5.572-5,9.143-2.313,4.255-3.14,6.947-5.9,10.932-2.63,3.805-3.964,6.312-7.734,8.993-2.838,2.019-4.653,3.238-8.093,3.777a16.294,16.294,0,0,1-14.749-5.4,19.512,19.512,0,0,0,9.713-2.7,27.372,27.372,0,0,0,9.222-8.287c5.112-7.82,9.311-17.934,14.52-24.808,4.27-5.635,6.385-7.7,11.871-10.612,2.325-1.233,6.373-2.148,9.173-1.439A9.841,9.841,0,0,1,156.3,7.482" transform="translate(-6.721 -0.176)" fill="#004893"/>
          <path id="Path_8367" data-name="Path 8367" d="M156.3,7.482s-5.76-.394-9.713,3.2a31.084,31.084,0,0,0-4.084,4.346,39.783,39.783,0,0,0-4.8,8.134c-1.89,3.764-3.062,5.572-5,9.143-2.313,4.255-3.14,6.947-5.9,10.932-2.63,3.805-3.964,6.312-7.734,8.993-2.838,2.019-4.653,3.238-8.093,3.777a16.294,16.294,0,0,1-14.749-5.4,19.512,19.512,0,0,0,9.713-2.7,27.372,27.372,0,0,0,9.222-8.287c5.112-7.82,9.311-17.934,14.52-24.808,4.27-5.635,6.385-7.7,11.871-10.612,2.325-1.233,6.373-2.148,9.173-1.439A9.841,9.841,0,0,1,156.3,7.482Z" transform="translate(-6.721 -0.176)" fill="none" stroke="#004893" stroke-width="0.209"/>
          <path id="Path_8368" data-name="Path 8368" d="M8.9,86.617c0,2.585-1.32,3.932-3.739,3.932a4.872,4.872,0,0,1-.606-.055c0-2.5.028-4.976.083-7.478,3,0,4.262.357,4.262,3.6m.825,13.8c.824-.055,1.677-.137,2.5-.137s1.649.082,2.474.137c-2.007-3.107-4.1-6.241-5.856-9.348,2.722-.687,4.262-2.392,4.262-5.059a4.281,4.281,0,0,0-1.788-3.629c-.962-.687-1.979-.935-4.757-.935-1.87,0-3.052.137-4.042.137-.908,0-1.65-.082-2.255-.137.165,2.419.22,4.536.22,7.616V92.8c0,3.08-.055,5.2-.22,7.616.6-.055,1.347-.137,2.255-.137s1.649.082,2.255.137c-.166-2.419-.22-4.536-.22-7.616V91.676H4.8Z" transform="translate(-0.019 -5.689)" fill="#004893" fill-rule="evenodd"/>
          <path id="Path_8369" data-name="Path 8369" d="M8.9,86.617c0,2.585-1.32,3.932-3.739,3.932a4.872,4.872,0,0,1-.606-.055c0-2.5.028-4.976.083-7.478C7.636,83.015,8.9,83.372,8.9,86.617Zm.825,13.8c.824-.055,1.677-.137,2.5-.137s1.649.082,2.474.137c-2.007-3.107-4.1-6.241-5.856-9.348,2.722-.687,4.262-2.392,4.262-5.059a4.281,4.281,0,0,0-1.788-3.629c-.962-.687-1.979-.935-4.757-.935-1.87,0-3.052.137-4.042.137-.908,0-1.65-.082-2.255-.137.165,2.419.22,4.536.22,7.616V92.8c0,3.08-.055,5.2-.22,7.616.6-.055,1.347-.137,2.255-.137s1.649.082,2.255.137c-.166-2.419-.22-4.536-.22-7.616V91.676H4.8Z" transform="translate(-0.019 -5.689)" fill="none" stroke="#004893" stroke-width="0.495"/>
          <path id="Path_8370" data-name="Path 8370" d="M22.44,93.15c.8-2.227,1.65-4.4,2.585-6.544.88,2.145,1.65,4.317,2.447,6.544ZM27.115,81.3a6.825,6.825,0,0,1-1.045.138,6.813,6.813,0,0,1-1.045-.138c-2.364,6.268-6.489,16.057-7.837,19.109a13.685,13.685,0,0,1,1.375-.137,10.334,10.334,0,0,1,1.293.137,54.107,54.107,0,0,1,1.87-5.637c.962-.027,1.9-.055,2.859-.055,1.182,0,2.337.028,3.52.055.687,1.871,1.32,3.767,1.9,5.637.769-.055,1.566-.137,2.337-.137s1.54.082,2.42.137c-2.09-4.481-5.307-12.841-7.644-19.109" transform="translate(-1.201 -5.679)" fill="#004893" fill-rule="evenodd"/>
          <path id="Path_8371" data-name="Path 8371" d="M22.44,93.15c.8-2.227,1.65-4.4,2.585-6.544.88,2.145,1.65,4.317,2.447,6.544ZM27.115,81.3a6.825,6.825,0,0,1-1.045.138,6.813,6.813,0,0,1-1.045-.138c-2.364,6.268-6.489,16.057-7.837,19.109a13.685,13.685,0,0,1,1.375-.137,10.334,10.334,0,0,1,1.293.137,54.107,54.107,0,0,1,1.87-5.637c.962-.027,1.9-.055,2.859-.055,1.182,0,2.337.028,3.52.055.687,1.871,1.32,3.767,1.9,5.637.769-.055,1.566-.137,2.337-.137s1.54.082,2.42.137C32.669,95.928,29.451,87.568,27.115,81.3Z" transform="translate(-1.201 -5.679)" fill="none" stroke="#004893" stroke-width="0.495"/>
          <path id="Path_8372" data-name="Path 8372" d="M40.181,86.919c0,5.609-.412,12.7-.55,13.5a6.637,6.637,0,0,1,1.265-.137,7.182,7.182,0,0,1,1.292.137c-.083-1.017-.165-2.557-.165-6.956,0-2.063,0-4.345.055-6.407q6.351,6.682,12.016,13.363a4.427,4.427,0,0,1,1.072-.137,5.312,5.312,0,0,1,1.127.137c0-7.314,0-10.97.439-18.971a5.665,5.665,0,0,1-2.474,0c.193,1.237.193,8.716.193,13.087-4.042-4.372-7.974-8.716-11.933-13.087a5.669,5.669,0,0,1-2.475,0c.028,1.319.138,3,.138,5.471" transform="translate(-2.768 -5.689)" fill="#004893"/>
          <path id="Path_8373" data-name="Path 8373" d="M40.181,86.919c0,5.609-.412,12.7-.55,13.5a6.637,6.637,0,0,1,1.265-.137,7.182,7.182,0,0,1,1.292.137c-.083-1.017-.165-2.557-.165-6.956,0-2.063,0-4.345.055-6.407q6.351,6.682,12.016,13.363a4.427,4.427,0,0,1,1.072-.137,5.312,5.312,0,0,1,1.127.137c0-7.314,0-10.97.439-18.971a5.665,5.665,0,0,1-2.474,0c.193,1.237.193,8.716.193,13.087-4.042-4.372-7.974-8.716-11.933-13.087a5.669,5.669,0,0,1-2.475,0C40.071,82.767,40.181,84.445,40.181,86.919Z" transform="translate(-2.768 -5.689)" fill="none" stroke="#004893" stroke-width="0.495"/>
          <path id="Path_8374" data-name="Path 8374" d="M67.814,88.514c0-1.485,0-4.84.027-5.362a25.9,25.9,0,0,1,2.859-.137c3.8,0,6.3,2.8,6.3,7.314,0,5.719-2.612,8.523-6.736,8.523-1.127,0-1.871-.055-2.42-.082-.027-.523-.027-3.877-.027-5.362ZM63.744,92.8c0,3.08-.055,5.2-.22,7.616.6-.055,1.348-.137,2.255-.137,1.43,0,3.3.137,6.049.137,5.17,0,9.514-3.987,9.514-10.035,0-6.93-4.317-8.936-10.585-8.936-2.42,0-3.767.137-4.977.137-.907,0-1.65-.082-2.255-.137.166,2.419.22,4.536.22,7.616Z" transform="translate(-4.437 -5.689)" fill="#004893" fill-rule="evenodd"/>
          <path id="Path_8375" data-name="Path 8375" d="M67.814,88.514c0-1.485,0-4.84.027-5.362a25.9,25.9,0,0,1,2.859-.137c3.8,0,6.3,2.8,6.3,7.314,0,5.719-2.612,8.523-6.736,8.523-1.127,0-1.871-.055-2.42-.082-.027-.523-.027-3.877-.027-5.362ZM63.744,92.8c0,3.08-.055,5.2-.22,7.616.6-.055,1.348-.137,2.255-.137,1.43,0,3.3.137,6.049.137,5.17,0,9.514-3.987,9.514-10.035,0-6.93-4.317-8.936-10.585-8.936-2.42,0-3.767.137-4.977.137-.907,0-1.65-.082-2.255-.137.166,2.419.22,4.536.22,7.616Z" transform="translate(-4.437 -5.689)" fill="none" stroke="#004893" stroke-width="0.495"/>
          <path id="Path_8376" data-name="Path 8376" d="M106.183,86.919c1.649,4.509,3.162,8.991,4.344,13.5a12.616,12.616,0,0,1,1.43-.137,12.132,12.132,0,0,1,1.4.137c1.76-6.077,5.527-16.854,6.269-18.971a6.9,6.9,0,0,1-1.265.137,5.794,5.794,0,0,1-1.155-.137c-.495,2.172-2.667,9.265-4.069,13.885h-.055c-.99-3.629-3.849-11.439-4.344-13.885a6.98,6.98,0,0,1-2.75,0c-.77,2.557-3.108,9.265-4.73,13.885h-.055c-1.045-3.85-2.474-9.184-3.6-13.885a20.339,20.339,0,0,1-2.228.137,22.76,22.76,0,0,1-2.31-.137c.413,1.182,4.345,14.16,5.527,18.971a12.6,12.6,0,0,1,1.43-.137,12.132,12.132,0,0,1,1.4.137c1.154-3.877,3.409-9.761,4.7-13.5Z" transform="translate(-6.5 -5.689)" fill="#004893"/>
          <path id="Path_8377" data-name="Path 8377" d="M106.183,86.919c1.649,4.509,3.162,8.991,4.344,13.5a12.616,12.616,0,0,1,1.43-.137,12.132,12.132,0,0,1,1.4.137c1.76-6.077,5.527-16.854,6.269-18.971a6.9,6.9,0,0,1-1.265.137,5.794,5.794,0,0,1-1.155-.137c-.495,2.172-2.667,9.265-4.069,13.885h-.055c-.99-3.629-3.849-11.439-4.344-13.885a6.98,6.98,0,0,1-2.75,0c-.77,2.557-3.108,9.265-4.73,13.885h-.055c-1.045-3.85-2.474-9.184-3.6-13.885a20.339,20.339,0,0,1-2.228.137,22.76,22.76,0,0,1-2.31-.137c.413,1.182,4.345,14.16,5.527,18.971a12.6,12.6,0,0,1,1.43-.137,12.132,12.132,0,0,1,1.4.137c1.154-3.877,3.409-9.761,4.7-13.5Z" transform="translate(-6.5 -5.689)" fill="none" stroke="#004893" stroke-width="0.495"/>
          <path id="Path_8378" data-name="Path 8378" d="M126.825,93.15c.8-2.227,1.65-4.4,2.585-6.544.879,2.145,1.649,4.317,2.447,6.544ZM131.5,81.3a4.032,4.032,0,0,1-2.089,0c-2.365,6.268-6.49,16.057-7.837,19.109a13.659,13.659,0,0,1,1.375-.137,10.32,10.32,0,0,1,1.292.137,54.322,54.322,0,0,1,1.87-5.637c.963-.027,1.9-.055,2.86-.055,1.182,0,2.337.028,3.519.055.687,1.871,1.32,3.767,1.9,5.637.77-.055,1.567-.137,2.337-.137s1.539.082,2.419.137c-2.09-4.481-5.307-12.841-7.644-19.109" transform="translate(-8.491 -5.679)" fill="#004893" fill-rule="evenodd"/>
          <path id="Path_8379" data-name="Path 8379" d="M126.825,93.15c.8-2.227,1.65-4.4,2.585-6.544.879,2.145,1.649,4.317,2.447,6.544ZM131.5,81.3a4.032,4.032,0,0,1-2.089,0c-2.365,6.268-6.49,16.057-7.837,19.109a13.659,13.659,0,0,1,1.375-.137,10.32,10.32,0,0,1,1.292.137,54.322,54.322,0,0,1,1.87-5.637c.963-.027,1.9-.055,2.86-.055,1.182,0,2.337.028,3.519.055.687,1.871,1.32,3.767,1.9,5.637.77-.055,1.567-.137,2.337-.137s1.539.082,2.419.137C137.053,95.928,133.836,87.568,131.5,81.3Z" transform="translate(-8.491 -5.679)" fill="none" stroke="#004893" stroke-width="0.495"/>
          <path id="Path_8380" data-name="Path 8380" d="M145.831,92.8c0,3.08-.056,5.2-.22,7.616.6-.055,1.347-.137,2.255-.137s1.65.082,2.255.137c-.165-2.419-.22-4.536-.22-7.616V85.929c0-1.045,0-2.035.056-2.419a48.782,48.782,0,0,1,4.894.357,5.384,5.384,0,0,1,0-2.419c-2.337.082-3.574.137-6.984.137s-4.647-.055-7.149-.137a5.384,5.384,0,0,1,0,2.419c1.65-.193,3.96-.357,5.032-.357a17.8,17.8,0,0,1,.083,2.419Z" transform="translate(-9.828 -5.689)" fill="#004893"/>
          <path id="Path_8381" data-name="Path 8381" d="M145.831,92.8c0,3.08-.056,5.2-.22,7.616.6-.055,1.347-.137,2.255-.137s1.65.082,2.255.137c-.165-2.419-.22-4.536-.22-7.616V85.929c0-1.045,0-2.035.056-2.419a48.782,48.782,0,0,1,4.894.357,5.384,5.384,0,0,1,0-2.419c-2.337.082-3.574.137-6.984.137s-4.647-.055-7.149-.137a5.384,5.384,0,0,1,0,2.419c1.65-.193,3.96-.357,5.032-.357a17.8,17.8,0,0,1,.083,2.419Z" transform="translate(-9.828 -5.689)" fill="none" stroke="#004893" stroke-width="0.495"/>
          <path id="Path_8382" data-name="Path 8382" d="M159.731,92.8c0,3.08-.055,5.2-.22,7.616.606-.055,1.348-.137,5.829-.137,2.53,0,3.822.11,4.812.137a5.928,5.928,0,0,1-.11-1.182,7.094,7.094,0,0,1,.11-1.237,54.391,54.391,0,0,1-6.3.357c-.055-1.1-.083-2.282-.083-3.437,0-1.182.028-2.364.028-3.52,2.089,0,4.151.083,6.241.247a8.488,8.488,0,0,1-.138-1.126,6.391,6.391,0,0,1,.138-1.238c-2.09.111-3.85.166-6.241.22,0-2.007,0-3.987.137-5.994.825,0,4.125.193,6.214.329a7.363,7.363,0,0,1-.11-1.237,6.319,6.319,0,0,1,.11-1.154c-.742.082-3.052.137-5.746.137-1.622,0-3.272-.11-4.894-.137.166,2.419.22,4.536.22,7.616Z" transform="translate(-11.141 -5.689)" fill="#004893"/>
          <path id="Path_8383" data-name="Path 8383" d="M159.731,92.8c0,3.08-.055,5.2-.22,7.616.606-.055,1.348-.137,5.829-.137,2.53,0,3.822.11,4.812.137a5.928,5.928,0,0,1-.11-1.182,7.094,7.094,0,0,1,.11-1.237,54.391,54.391,0,0,1-6.3.357c-.055-1.1-.083-2.282-.083-3.437,0-1.182.028-2.364.028-3.52,2.089,0,4.151.083,6.241.247a8.488,8.488,0,0,1-.138-1.126,6.391,6.391,0,0,1,.138-1.238c-2.09.111-3.85.166-6.241.22,0-2.007,0-3.987.137-5.994.825,0,4.125.193,6.214.329a7.363,7.363,0,0,1-.11-1.237,6.319,6.319,0,0,1,.11-1.154c-.742.082-3.052.137-5.746.137-1.622,0-3.272-.11-4.894-.137.166,2.419.22,4.536.22,7.616Z" transform="translate(-11.141 -5.689)" fill="none" stroke="#004893" stroke-width="0.495"/>
          <path id="Path_8384" data-name="Path 8384" d="M184.06,86.617c0,2.585-1.32,3.932-3.739,3.932a4.872,4.872,0,0,1-.606-.055c0-2.5.028-4.976.083-7.478,3,0,4.262.357,4.262,3.6m.825,13.8c.825-.055,1.677-.137,2.5-.137s1.649.082,2.474.137c-2.007-3.107-4.1-6.241-5.856-9.348,2.722-.687,4.262-2.392,4.262-5.059a4.281,4.281,0,0,0-1.788-3.629c-.962-.687-1.979-.935-4.757-.935-1.87,0-3.052.137-4.042.137-.908,0-1.65-.082-2.255-.137.165,2.419.22,4.536.22,7.616V92.8c0,3.08-.055,5.2-.22,7.616.6-.055,1.347-.137,2.255-.137s1.65.082,2.255.137c-.166-2.419-.22-4.536-.22-7.616V91.676h.247Z" transform="translate(-12.253 -5.689)" fill="#004893" fill-rule="evenodd"/>
          <path id="Path_8385" data-name="Path 8385" d="M184.06,86.617c0,2.585-1.32,3.932-3.739,3.932a4.872,4.872,0,0,1-.606-.055c0-2.5.028-4.976.083-7.478C182.795,83.015,184.06,83.372,184.06,86.617Zm.825,13.8c.825-.055,1.677-.137,2.5-.137s1.649.082,2.474.137c-2.007-3.107-4.1-6.241-5.856-9.348,2.722-.687,4.262-2.392,4.262-5.059a4.281,4.281,0,0,0-1.788-3.629c-.962-.687-1.979-.935-4.757-.935-1.87,0-3.052.137-4.042.137-.908,0-1.65-.082-2.255-.137.165,2.419.22,4.536.22,7.616V92.8c0,3.08-.055,5.2-.22,7.616.6-.055,1.347-.137,2.255-.137s1.65.082,2.255.137c-.166-2.419-.22-4.536-.22-7.616V91.676h.247Z" transform="translate(-12.253 -5.689)" fill="none" stroke="#004893" stroke-width="0.495"/>
        </g>
      </g>
    </g>
    <path id="Path_10427" data-name="Path 10427" d="M26.353,12.562c0-2.98-4.4-2.282-4.4-3.829a.789.789,0,0,1,.913-.812.964.964,0,0,1,1.027.926h2.346c-.089-1.7-1.395-2.663-3.335-2.663-1.864,0-3.246.938-3.246,2.625-.025,3.157,4.425,2.27,4.425,3.918,0,.52-.406.837-1.04.837a1.021,1.021,0,0,1-1.1-1.014H19.632c.063,1.8,1.56,2.752,3.474,2.752C25.186,15.3,26.353,14.058,26.353,12.562Zm.9-.9c0,2.232,1.382,3.652,3.107,3.652a2.5,2.5,0,0,0,2.194-1.1v1h2.168V8.137H32.553v1a2.463,2.463,0,0,0-2.181-1.1C28.635,8.035,27.253,9.43,27.253,11.662Zm5.3.013a1.58,1.58,0,0,1-1.547,1.75,1.6,1.6,0,0,1-1.547-1.763,1.558,1.558,0,1,1,3.094.013Zm3.069-3.538,2.511,7.076h2.676l2.511-7.076H41.011l-1.534,5.047L37.942,8.137ZM47.351,9.773a1.223,1.223,0,0,1,1.331,1.217H45.969A1.341,1.341,0,0,1,47.351,9.773Zm3.386,3.094H48.429a1.153,1.153,0,0,1-1.129.685,1.312,1.312,0,0,1-1.344-1.357h4.907a5.48,5.48,0,0,0,.038-.634,3.334,3.334,0,0,0-3.525-3.525A3.4,3.4,0,0,0,43.8,11.675a3.411,3.411,0,0,0,3.576,3.639A3.307,3.307,0,0,0,50.737,12.867Zm5.782,2.346h2.625l1.471-5.858,1.42,5.858H64.66l2.321-8.9H64.647l-1.293,6.48-1.522-6.48H59.448l-1.585,6.48-1.281-6.48H54.262Zm11.121-3.55c0,2.232,1.382,3.652,3.107,3.652a2.5,2.5,0,0,0,2.194-1.1v1h2.168V8.137H72.94v1a2.463,2.463,0,0,0-2.181-1.1C69.022,8.035,67.64,9.43,67.64,11.662Zm5.3.013a1.58,1.58,0,0,1-1.547,1.75,1.6,1.6,0,0,1-1.547-1.763,1.558,1.558,0,1,1,3.094.013Zm4.083,1.078a2.186,2.186,0,0,0,2.5,2.46h1.1V13.374h-.773c-.482,0-.659-.178-.659-.6V9.937h1.42v-1.8h-1.42V6.412H77.023V8.137h-.862v1.8h.862Zm7.925-2.98A1.223,1.223,0,0,1,86.28,10.99H83.566A1.341,1.341,0,0,1,84.948,9.773Zm3.386,3.094H86.026a1.153,1.153,0,0,1-1.129.685,1.312,1.312,0,0,1-1.344-1.357h4.907a5.478,5.478,0,0,0,.038-.634,3.334,3.334,0,0,0-3.525-3.525A3.4,3.4,0,0,0,81.4,11.675a3.411,3.411,0,0,0,3.576,3.639A3.307,3.307,0,0,0,88.334,12.867Zm3.474-.938c0-1.217.6-1.572,1.623-1.572h.6v-2.3a2.638,2.638,0,0,0-2.219,1.255V8.137H89.64v7.076h2.168Zm12.021,3.284h2.3l-3.221-8.9h-2.511l-3.221,8.9h2.27l.533-1.572H103.3Zm-1.091-3.246h-2.194l1.09-3.259Zm6.53-2.828v-1H107.1V18.585h2.168V14.223a2.545,2.545,0,0,0,2.181,1.091c1.737,0,3.119-1.42,3.119-3.652s-1.382-3.627-3.119-3.627A2.494,2.494,0,0,0,109.269,9.139Zm3.094,2.523a1.565,1.565,0,1,1-3.107.013,1.564,1.564,0,1,1,3.107-.013Zm5.516-2.523v-1h-2.168V18.585h2.168V14.223a2.545,2.545,0,0,0,2.181,1.091c1.737,0,3.119-1.42,3.119-3.652S121.8,8.035,120.06,8.035A2.5,2.5,0,0,0,117.879,9.139Zm3.094,2.523a1.565,1.565,0,1,1-3.107.013,1.564,1.564,0,1,1,3.107-.013Z" transform="translate(79.077 318.691)" fill="#1e488e"/>
  </g>
</svg>
