<svg xmlns="http://www.w3.org/2000/svg" xmlns:xlink="http://www.w3.org/1999/xlink" width="252.746" height="134.885" viewBox="0 0 252.746 134.885">
  <defs>
    <clipPath id="clip-path">
      <rect id="Rectangle_5888" data-name="Rectangle 5888" width="252.746" height="134.885" fill="none"/>
    </clipPath>
  </defs>
  <g id="Group_28556" data-name="Group 28556" transform="translate(-92 -355)">
    <g id="Group_15012" data-name="Group 15012" transform="translate(92 355)">
      <g id="Group_15011" data-name="Group 15011" clip-path="url(#clip-path)">
        <path id="Path_8360" data-name="Path 8360" d="M30.851,9.3s8.176-.56,13.787,4.539a44.259,44.259,0,0,1,5.8,6.169c3.243,4.1,4.452,6.837,6.817,11.547,2.682,5.344,4.347,7.91,7.1,12.979,3.284,6.041,4.459,9.862,8.369,15.518,3.735,5.4,5.629,8.96,10.979,12.765,4.03,2.867,6.6,4.6,11.49,5.362A20.144,20.144,0,0,0,107.5,76.7a20.129,20.129,0,0,0,8.625-6.185c-5.569-.36-8.936-1.068-13.787-3.83A38.867,38.867,0,0,1,89.248,54.924c-7.257-11.1-13.216-25.458-20.611-35.216-6.062-8-9.064-10.933-16.851-15.064C48.487,2.894,42.741,1.6,38.765,2.6a13.963,13.963,0,0,0-7.914,6.7" transform="translate(9.884 0.721)" fill="#004893"/>
        <path id="Path_8361" data-name="Path 8361" d="M30.851,9.3s8.176-.56,13.787,4.539a44.259,44.259,0,0,1,5.8,6.169c3.243,4.1,4.452,6.837,6.817,11.547,2.682,5.344,4.347,7.91,7.1,12.979,3.284,6.041,4.459,9.862,8.369,15.518,3.735,5.4,5.629,8.96,10.979,12.765,4.03,2.867,6.6,4.6,11.49,5.362A20.144,20.144,0,0,0,107.5,76.7a20.129,20.129,0,0,0,8.625-6.185c-5.569-.36-8.936-1.068-13.787-3.83A38.867,38.867,0,0,1,89.248,54.924c-7.257-11.1-13.216-25.458-20.611-35.216-6.062-8-9.064-10.933-16.851-15.064C48.487,2.894,42.741,1.6,38.765,2.6A13.963,13.963,0,0,0,30.851,9.3Z" transform="translate(9.884 0.721)" fill="none" stroke="#004893" stroke-miterlimit="3.864" stroke-width="0.209"/>
        <path id="Path_8362" data-name="Path 8362" d="M74.974,44.057a10.564,10.564,0,0,0,2.682,4.368,11.94,11.94,0,0,0,4,2.588,13.384,13.384,0,0,0,6.3,1.169,16.617,16.617,0,0,0,6.64-1.446,22.591,22.591,0,0,0,6.994-4.258c4.838-3.9,6.379-7.434,9.422-12.854,4.451-7.93,7.652-15.442,14.19-22.816,3.577-4.034,11.168-8.152,11.168-8.152C134.42.941,132.656.869,130.1.429c-3.552-.61-5.725-.243-9.22.64-5.392,1.364-8.065,3.594-12.343,7.151-4.141,3.442-5.855,6.094-9.043,10.434-4.08,5.556-4.551,9.932-8.942,15.248-2.08,2.518-3.2,4.072-5.8,6.038a18.714,18.714,0,0,1-5.742,3.282,13.4,13.4,0,0,1-4.034.834" transform="translate(24.02 0.041)" fill="#00869d"/>
        <path id="Path_8363" data-name="Path 8363" d="M74.974,44.057a10.564,10.564,0,0,0,2.682,4.368,11.94,11.94,0,0,0,4,2.588,13.384,13.384,0,0,0,6.3,1.169,16.617,16.617,0,0,0,6.64-1.446,22.591,22.591,0,0,0,6.994-4.258c4.838-3.9,6.379-7.434,9.422-12.854,4.451-7.93,7.652-15.442,14.19-22.816,3.577-4.034,11.168-8.152,11.168-8.152C134.42.941,132.656.869,130.1.429c-3.552-.61-5.725-.243-9.22.64-5.392,1.364-8.065,3.594-12.343,7.151-4.141,3.442-5.855,6.094-9.043,10.434-4.08,5.556-4.551,9.932-8.942,15.248-2.08,2.518-3.2,4.072-5.8,6.038a18.714,18.714,0,0,1-5.742,3.282A13.4,13.4,0,0,1,74.974,44.057Z" transform="translate(24.02 0.041)" fill="none" stroke="#00869d" stroke-miterlimit="3.864" stroke-width="0.209"/>
        <path id="Path_8364" data-name="Path 8364" d="M82.349,57.281s6.817,8.346,20.033,7.79c7.541-.318,12.938-4.174,18.921-10.156a33.724,33.724,0,0,0,3.617-5.147c1.606-2.521,2.3-4.068,3.756-6.677,2.745-4.921,3.914-7.241,6.956-12.66a87.833,87.833,0,0,1,13.356-18.781C152.565,7.616,162.855,2.7,162.855,2.7a16.712,16.712,0,0,0-6.26-2.226c-3.774-.708-6.075-.323-9.834.462-6.128,1.281-9.451,3.31-14.329,7.233-3.8,3.059-5.457,5.39-8.347,9.322-3.512,4.776-4.568,8.07-7.513,13.216-2.072,3.622-3.746,6.421-5.33,9.277-2.877,5.192-6.54,9.457-8.581,11.034-10.434,8.069-20.311,6.261-20.311,6.261" transform="translate(26.382 0.033)" fill="#00869d"/>
        <path id="Path_8365" data-name="Path 8365" d="M82.349,57.281s6.817,8.346,20.033,7.79c7.541-.318,12.938-4.174,18.921-10.156a33.724,33.724,0,0,0,3.617-5.147c1.606-2.521,2.3-4.068,3.756-6.677,2.745-4.921,3.914-7.241,6.956-12.66a87.833,87.833,0,0,1,13.356-18.781C152.565,7.616,162.855,2.7,162.855,2.7a16.712,16.712,0,0,0-6.26-2.226c-3.774-.708-6.075-.323-9.834.462-6.128,1.281-9.451,3.31-14.329,7.233-3.8,3.059-5.457,5.39-8.347,9.322-3.512,4.776-4.568,8.07-7.513,13.216-2.072,3.622-3.746,6.421-5.33,9.277-2.877,5.192-6.54,9.457-8.581,11.034C92.227,59.089,82.349,57.281,82.349,57.281Z" transform="translate(26.382 0.033)" fill="none" stroke="#00869d" stroke-miterlimit="3.864" stroke-width="0.209"/>
        <path id="Path_8366" data-name="Path 8366" d="M181.507,9.565s-8.177-.56-13.787,4.539a44.123,44.123,0,0,0-5.8,6.169c-3.241,4.1-4.452,6.837-6.816,11.547-2.683,5.344-4.347,7.909-7.1,12.979-3.284,6.041-4.458,9.862-8.369,15.518-3.734,5.4-5.627,8.96-10.979,12.765-4.028,2.867-6.6,4.6-11.489,5.362a20.147,20.147,0,0,1-12.312-1.475,20.129,20.129,0,0,1-8.625-6.185c5.569-.36,8.938-1.068,13.787-3.83a38.854,38.854,0,0,0,13.092-11.763c7.257-11.1,13.217-25.458,20.611-35.216,6.062-8,9.064-10.933,16.851-15.064,3.3-1.751,9.047-3.049,13.022-2.043a13.969,13.969,0,0,1,7.916,6.7" transform="translate(30.829 0.807)" fill="#004893"/>
        <path id="Path_8367" data-name="Path 8367" d="M181.507,9.565s-8.177-.56-13.787,4.539a44.123,44.123,0,0,0-5.8,6.169c-3.241,4.1-4.452,6.837-6.816,11.547-2.683,5.344-4.347,7.909-7.1,12.979-3.284,6.041-4.458,9.862-8.369,15.518-3.734,5.4-5.627,8.96-10.979,12.765-4.028,2.867-6.6,4.6-11.489,5.362a20.147,20.147,0,0,1-12.312-1.475,20.129,20.129,0,0,1-8.625-6.185c5.569-.36,8.938-1.068,13.787-3.83a38.854,38.854,0,0,0,13.092-11.763c7.257-11.1,13.217-25.458,20.611-35.216,6.062-8,9.064-10.933,16.851-15.064,3.3-1.751,9.047-3.049,13.022-2.043A13.969,13.969,0,0,1,181.507,9.565Z" transform="translate(30.829 0.807)" fill="none" stroke="#004893" stroke-miterlimit="3.864" stroke-width="0.209"/>
        <path id="Path_8368" data-name="Path 8368" d="M12.523,88.785c0,3.669-1.874,5.581-5.308,5.581a6.915,6.915,0,0,1-.86-.078c0-3.552.04-7.064.118-10.616,4.254,0,6.05.507,6.05,5.112m1.171,19.593c1.17-.078,2.381-.194,3.552-.194s2.341.116,3.512.194c-2.849-4.41-5.815-8.86-8.313-13.27,3.863-.976,6.05-3.4,6.05-7.182a6.077,6.077,0,0,0-2.538-5.152c-1.365-.976-2.81-1.327-6.752-1.327-2.654,0-4.332.194-5.737.194-1.289,0-2.342-.116-3.2-.194C.5,84.882.579,87.887.579,92.259v5.308c0,4.372-.078,7.377-.312,10.811.858-.078,1.912-.194,3.2-.194s2.341.116,3.2.194c-.235-3.434-.313-6.439-.313-10.811v-1.6h.351Z" transform="translate(0.086 26.094)" fill="#004893" fill-rule="evenodd"/>
        <path id="Path_8369" data-name="Path 8369" d="M12.523,88.785c0,3.669-1.874,5.581-5.308,5.581a6.915,6.915,0,0,1-.86-.078c0-3.552.04-7.064.118-10.616C10.727,83.673,12.523,84.18,12.523,88.785Zm1.171,19.593c1.17-.078,2.381-.194,3.552-.194s2.341.116,3.512.194c-2.849-4.41-5.815-8.86-8.313-13.27,3.863-.976,6.05-3.4,6.05-7.182a6.077,6.077,0,0,0-2.538-5.152c-1.365-.976-2.81-1.327-6.752-1.327-2.654,0-4.332.194-5.737.194-1.289,0-2.342-.116-3.2-.194C.5,84.882.579,87.887.579,92.259v5.308c0,4.372-.078,7.377-.312,10.811.858-.078,1.912-.194,3.2-.194s2.341.116,3.2.194c-.235-3.434-.313-6.439-.313-10.811v-1.6h.351Z" transform="translate(0.086 26.094)" fill="none" stroke="#004893" stroke-miterlimit="3.864" stroke-width="0.495"/>
        <path id="Path_8370" data-name="Path 8370" d="M24.643,98.122c1.133-3.161,2.342-6.244,3.669-9.289,1.249,3.045,2.342,6.128,3.474,9.289ZM31.279,81.3a9.687,9.687,0,0,1-1.484.2,9.671,9.671,0,0,1-1.483-.2c-3.356,8.9-9.211,22.794-11.124,27.126a19.425,19.425,0,0,1,1.952-.194,14.669,14.669,0,0,1,1.835.194,76.807,76.807,0,0,1,2.654-8c1.365-.038,2.694-.078,4.059-.078,1.678,0,3.318.04,5,.078.976,2.655,1.874,5.348,2.694,8,1.092-.078,2.224-.194,3.317-.194s2.187.116,3.436.194C39.163,102.064,34.6,90.2,31.279,81.3" transform="translate(5.507 26.046)" fill="#004893" fill-rule="evenodd"/>
        <path id="Path_8371" data-name="Path 8371" d="M24.643,98.122c1.133-3.161,2.342-6.244,3.669-9.289,1.249,3.045,2.342,6.128,3.474,9.289ZM31.279,81.3a9.687,9.687,0,0,1-1.484.2,9.671,9.671,0,0,1-1.483-.2c-3.356,8.9-9.211,22.794-11.124,27.126a19.425,19.425,0,0,1,1.952-.194,14.669,14.669,0,0,1,1.835.194,76.807,76.807,0,0,1,2.654-8c1.365-.038,2.694-.078,4.059-.078,1.678,0,3.318.04,5,.078.976,2.655,1.874,5.348,2.694,8,1.092-.078,2.224-.194,3.317-.194s2.187.116,3.436.194C39.163,102.064,34.6,90.2,31.279,81.3Z" transform="translate(5.507 26.046)" fill="none" stroke="#004893" stroke-miterlimit="3.864" stroke-width="0.495"/>
        <path id="Path_8372" data-name="Path 8372" d="M40.411,89.214c0,7.962-.585,18.032-.78,19.164a9.422,9.422,0,0,1,1.8-.194,10.194,10.194,0,0,1,1.834.194c-.118-1.443-.234-3.63-.234-9.874,0-2.929,0-6.167.078-9.095q9.016,9.485,17.057,18.969a6.283,6.283,0,0,1,1.522-.194,7.54,7.54,0,0,1,1.6.194c0-10.382,0-15.572.623-26.93a8.041,8.041,0,0,1-3.512,0c.273,1.756.273,12.372.273,18.578-5.737-6.206-11.32-12.372-16.939-18.578a8.047,8.047,0,0,1-3.514,0c.04,1.872.2,4.254.2,7.766" transform="translate(12.697 26.094)" fill="#004893"/>
        <path id="Path_8373" data-name="Path 8373" d="M40.411,89.214c0,7.962-.585,18.032-.78,19.164a9.422,9.422,0,0,1,1.8-.194,10.194,10.194,0,0,1,1.834.194c-.118-1.443-.234-3.63-.234-9.874,0-2.929,0-6.167.078-9.095q9.016,9.485,17.057,18.969a6.283,6.283,0,0,1,1.522-.194,7.54,7.54,0,0,1,1.6.194c0-10.382,0-15.572.623-26.93a8.041,8.041,0,0,1-3.512,0c.273,1.756.273,12.372.273,18.578-5.737-6.206-11.32-12.372-16.939-18.578a8.047,8.047,0,0,1-3.514,0C40.256,83.32,40.411,85.7,40.411,89.214Z" transform="translate(12.697 26.094)" fill="none" stroke="#004893" stroke-miterlimit="3.864" stroke-width="0.495"/>
        <path id="Path_8374" data-name="Path 8374" d="M69.614,91.479c0-2.109,0-6.87.038-7.612a36.76,36.76,0,0,1,4.059-.194c5.387,0,8.939,3.981,8.939,10.382,0,8.118-3.708,12.1-9.562,12.1-1.6,0-2.655-.078-3.436-.116-.038-.742-.038-5.5-.038-7.612Zm-5.777,6.088c0,4.372-.078,7.377-.313,10.811.858-.078,1.913-.194,3.2-.194,2.029,0,4.683.194,8.586.194,7.339,0,13.5-5.659,13.5-14.246,0-9.837-6.128-12.685-15.026-12.685-3.436,0-5.348.194-7.065.194-1.287,0-2.342-.116-3.2-.194.235,3.434.313,6.439.313,10.811Z" transform="translate(20.351 26.094)" fill="#004893" fill-rule="evenodd"/>
        <path id="Path_8375" data-name="Path 8375" d="M69.614,91.479c0-2.109,0-6.87.038-7.612a36.76,36.76,0,0,1,4.059-.194c5.387,0,8.939,3.981,8.939,10.382,0,8.118-3.708,12.1-9.562,12.1-1.6,0-2.655-.078-3.436-.116-.038-.742-.038-5.5-.038-7.612Zm-5.777,6.088c0,4.372-.078,7.377-.313,10.811.858-.078,1.913-.194,3.2-.194,2.029,0,4.683.194,8.586.194,7.339,0,13.5-5.659,13.5-14.246,0-9.837-6.128-12.685-15.026-12.685-3.436,0-5.348.194-7.065.194-1.287,0-2.342-.116-3.2-.194.235,3.434.313,6.439.313,10.811Z" transform="translate(20.351 26.094)" fill="none" stroke="#004893" stroke-miterlimit="3.864" stroke-width="0.495"/>
        <path id="Path_8376" data-name="Path 8376" d="M111.686,89.214c2.341,6.4,4.488,12.763,6.166,19.164a17.908,17.908,0,0,1,2.029-.194,17.221,17.221,0,0,1,1.991.194c2.5-8.626,7.846-23.925,8.9-26.93a9.789,9.789,0,0,1-1.8.194,8.224,8.224,0,0,1-1.64-.194c-.7,3.083-3.786,13.152-5.777,19.711h-.078c-1.4-5.152-5.464-16.238-6.166-19.711a9.908,9.908,0,0,1-3.9,0C110.319,85.078,107,94.6,104.7,101.159h-.078c-1.483-5.465-3.512-13.037-5.112-19.711a28.871,28.871,0,0,1-3.162.194,32.309,32.309,0,0,1-3.278-.194c.586,1.678,6.167,20.1,7.846,26.93a17.879,17.879,0,0,1,2.029-.194,17.22,17.22,0,0,1,1.991.194c1.639-5.5,4.839-13.856,6.674-19.164Z" transform="translate(29.816 26.094)" fill="#004893"/>
        <path id="Path_8377" data-name="Path 8377" d="M111.686,89.214c2.341,6.4,4.488,12.763,6.166,19.164a17.908,17.908,0,0,1,2.029-.194,17.221,17.221,0,0,1,1.991.194c2.5-8.626,7.846-23.925,8.9-26.93a9.789,9.789,0,0,1-1.8.194,8.224,8.224,0,0,1-1.64-.194c-.7,3.083-3.786,13.152-5.777,19.711h-.078c-1.4-5.152-5.464-16.238-6.166-19.711a9.908,9.908,0,0,1-3.9,0C110.319,85.078,107,94.6,104.7,101.159h-.078c-1.483-5.465-3.512-13.037-5.112-19.711a28.871,28.871,0,0,1-3.162.194,32.309,32.309,0,0,1-3.278-.194c.586,1.678,6.167,20.1,7.846,26.93a17.879,17.879,0,0,1,2.029-.194,17.22,17.22,0,0,1,1.991.194c1.639-5.5,4.839-13.856,6.674-19.164Z" transform="translate(29.816 26.094)" fill="none" stroke="#004893" stroke-miterlimit="3.864" stroke-width="0.495"/>
        <path id="Path_8378" data-name="Path 8378" d="M129.028,98.122c1.132-3.161,2.342-6.244,3.669-9.289,1.248,3.045,2.341,6.128,3.474,9.289ZM135.663,81.3a5.724,5.724,0,0,1-2.966,0c-3.358,8.9-9.212,22.794-11.124,27.126a19.388,19.388,0,0,1,1.952-.194,14.649,14.649,0,0,1,1.834.194,77.113,77.113,0,0,1,2.654-8c1.367-.038,2.694-.078,4.06-.078,1.678,0,3.317.04,4.995.078.976,2.655,1.874,5.348,2.694,8,1.093-.078,2.225-.194,3.318-.194s2.185.116,3.434.194c-2.967-6.362-7.533-18.228-10.851-27.126" transform="translate(38.949 26.046)" fill="#004893" fill-rule="evenodd"/>
        <path id="Path_8379" data-name="Path 8379" d="M129.028,98.122c1.132-3.161,2.342-6.244,3.669-9.289,1.248,3.045,2.341,6.128,3.474,9.289ZM135.663,81.3a5.724,5.724,0,0,1-2.966,0c-3.358,8.9-9.212,22.794-11.124,27.126a19.388,19.388,0,0,1,1.952-.194,14.649,14.649,0,0,1,1.834.194,77.113,77.113,0,0,1,2.654-8c1.367-.038,2.694-.078,4.06-.078,1.678,0,3.317.04,4.995.078.976,2.655,1.874,5.348,2.694,8,1.093-.078,2.225-.194,3.318-.194s2.185.116,3.434.194C143.547,102.064,138.981,90.2,135.663,81.3Z" transform="translate(38.949 26.046)" fill="none" stroke="#004893" stroke-miterlimit="3.864" stroke-width="0.495"/>
        <path id="Path_8380" data-name="Path 8380" d="M147.977,97.567c0,4.372-.079,7.377-.313,10.811.858-.078,1.912-.194,3.2-.194s2.342.116,3.2.194c-.234-3.434-.313-6.439-.313-10.811V87.81c0-1.483,0-2.889.079-3.434a69.247,69.247,0,0,1,6.946.507,7.642,7.642,0,0,1,0-3.434c-3.317.116-5.073.194-9.913.194s-6.6-.078-10.148-.194a7.643,7.643,0,0,1,0,3.434c2.342-.273,5.621-.507,7.143-.507a25.271,25.271,0,0,1,.117,3.434Z" transform="translate(45.082 26.094)" fill="#004893"/>
        <path id="Path_8381" data-name="Path 8381" d="M147.977,97.567c0,4.372-.079,7.377-.313,10.811.858-.078,1.912-.194,3.2-.194s2.342.116,3.2.194c-.234-3.434-.313-6.439-.313-10.811V87.81c0-1.483,0-2.889.079-3.434a69.247,69.247,0,0,1,6.946.507,7.642,7.642,0,0,1,0-3.434c-3.317.116-5.073.194-9.913.194s-6.6-.078-10.148-.194a7.643,7.643,0,0,1,0,3.434c2.342-.273,5.621-.507,7.143-.507a25.271,25.271,0,0,1,.117,3.434Z" transform="translate(45.082 26.094)" fill="none" stroke="#004893" stroke-miterlimit="3.864" stroke-width="0.495"/>
        <path id="Path_8382" data-name="Path 8382" d="M159.824,97.567c0,4.372-.078,7.377-.313,10.811.86-.078,1.913-.194,8.275-.194,3.591,0,5.425.156,6.83.194a8.414,8.414,0,0,1-.156-1.678,10.069,10.069,0,0,1,.156-1.756,77.21,77.21,0,0,1-8.938.507c-.078-1.561-.118-3.239-.118-4.879,0-1.678.04-3.356.04-5,2.966,0,5.893.118,8.86.351a12.048,12.048,0,0,1-.2-1.6,9.07,9.07,0,0,1,.2-1.757c-2.967.157-5.465.235-8.86.313,0-2.849,0-5.659.194-8.508,1.171,0,5.856.273,8.821.467a10.45,10.45,0,0,1-.156-1.756,8.969,8.969,0,0,1,.156-1.639c-1.054.116-4.332.194-8.157.194-2.3,0-4.645-.156-6.948-.194.235,3.434.313,6.439.313,10.811Z" transform="translate(51.103 26.094)" fill="#004893"/>
        <path id="Path_8383" data-name="Path 8383" d="M159.824,97.567c0,4.372-.078,7.377-.313,10.811.86-.078,1.913-.194,8.275-.194,3.591,0,5.425.156,6.83.194a8.414,8.414,0,0,1-.156-1.678,10.069,10.069,0,0,1,.156-1.756,77.21,77.21,0,0,1-8.938.507c-.078-1.561-.118-3.239-.118-4.879,0-1.678.04-3.356.04-5,2.966,0,5.893.118,8.86.351a12.048,12.048,0,0,1-.2-1.6,9.07,9.07,0,0,1,.2-1.757c-2.967.157-5.465.235-8.86.313,0-2.849,0-5.659.194-8.508,1.171,0,5.856.273,8.821.467a10.45,10.45,0,0,1-.156-1.756,8.969,8.969,0,0,1,.156-1.639c-1.054.116-4.332.194-8.157.194-2.3,0-4.645-.156-6.948-.194.235,3.434.313,6.439.313,10.811Z" transform="translate(51.103 26.094)" fill="none" stroke="#004893" stroke-miterlimit="3.864" stroke-width="0.495"/>
        <path id="Path_8384" data-name="Path 8384" d="M187.682,88.785c0,3.669-1.874,5.581-5.308,5.581a6.916,6.916,0,0,1-.86-.078c0-3.552.04-7.064.118-10.616,4.254,0,6.05.507,6.05,5.112m1.171,19.593c1.171-.078,2.381-.194,3.552-.194s2.341.116,3.512.194c-2.849-4.41-5.815-8.86-8.313-13.27,3.863-.976,6.05-3.4,6.05-7.182a6.077,6.077,0,0,0-2.538-5.152c-1.365-.976-2.81-1.327-6.752-1.327-2.654,0-4.332.194-5.737.194-1.289,0-2.342-.116-3.2-.194.234,3.434.312,6.439.312,10.811v5.308c0,4.372-.078,7.377-.312,10.811.858-.078,1.912-.194,3.2-.194s2.342.116,3.2.194c-.235-3.434-.313-6.439-.313-10.811v-1.6h.351Z" transform="translate(56.202 26.094)" fill="#004893" fill-rule="evenodd"/>
        <path id="Path_8385" data-name="Path 8385" d="M187.682,88.785c0,3.669-1.874,5.581-5.308,5.581a6.916,6.916,0,0,1-.86-.078c0-3.552.04-7.064.118-10.616C185.886,83.673,187.682,84.18,187.682,88.785Zm1.171,19.593c1.171-.078,2.381-.194,3.552-.194s2.341.116,3.512.194c-2.849-4.41-5.815-8.86-8.313-13.27,3.863-.976,6.05-3.4,6.05-7.182a6.077,6.077,0,0,0-2.538-5.152c-1.365-.976-2.81-1.327-6.752-1.327-2.654,0-4.332.194-5.737.194-1.289,0-2.342-.116-3.2-.194.234,3.434.312,6.439.312,10.811v5.308c0,4.372-.078,7.377-.312,10.811.858-.078,1.912-.194,3.2-.194s2.342.116,3.2.194c-.235-3.434-.313-6.439-.313-10.811v-1.6h.351Z" transform="translate(56.202 26.094)" fill="none" stroke="#004893" stroke-miterlimit="3.864" stroke-width="0.495"/>
      </g>
    </g>
  </g>
</svg>
