<svg xmlns="http://www.w3.org/2000/svg" width="70.51" height="67.506" viewBox="270.169 125.065 70.51 67.506"><g data-name="Group 28930"><path d="m272.15 182.661-1.981 9.903h15.942l1.04-9.903h-15.002Z" fill="#c6c6c6" fill-rule="evenodd" data-name="Path 10346"/><path d="M306.515 148.53v9.87h12.435l-1.006-9.87h-11.43Z" fill="#c6c6c6" fill-rule="evenodd" data-name="Path 10347"/><path d="m289.361 182.661-1.006 9.903h15.974v-9.903h-14.968Z" fill="#c6c6c6" fill-rule="evenodd" data-name="Path 10348"/><path d="m321.389 160.628.909 8.831h13.734l-1.753-8.831h-12.89Z" fill="#c6c6c6" fill-rule="evenodd" data-name="Path 10349"/><path d="m320.161 148.53 1.007 9.87h12.663l-1.98-9.87h-11.69Z" fill="#e2e2e2" fill-rule="evenodd" data-name="Path 10350"/><path d="M306.515 160.628v8.832h13.572l-.877-8.832h-12.695Z" fill="#e2e2e2" fill-rule="evenodd" data-name="Path 10351"/><path d="m278.987 148.53-4.22 20.91h12.565l.454.357 2.76 2.24-.941 8.442h16.916v12.079h34.157l-4.22-20.91H322.56l.65 6.526-2.209.26-.682-6.786h-15.39v-1.461h-.617v-9.546h-16.721v-2.24h16.721v-9.871h-25.326Z" fill="#e2e2e2" fill-rule="evenodd" data-name="Path 10352"/><path d="M287.783 171.645h-13.442l-1.753 8.831h14.773l.91-8.831h-.488Z" fill="#e2e2e2" fill-rule="evenodd" data-name="Path 10353"/><path d="M306.528 169.093v-8.442h12.662l.91 8.799h-13.572v-.357Zm11.429-20.553 1.006 9.87h-12.435v-9.87h-2.176v9.87h-16.721v2.24h16.721v9.547h.585v1.46h15.422l.65 6.787 2.175-.26-.65-6.526h13.962l-.487-2.208h-13.734l-.91-8.8h12.924l-.423-2.24h-12.695l-1.039-9.87h-2.175Z" fill="#525c6b" fill-rule="evenodd" data-name="Path 10354"/><path d="m274.78 169.453-.455 2.208h13.962l-.91 8.799h-14.773l-.455 2.208h15.001l-1.039 9.903h2.24l1.007-9.903h14.968v9.903h2.176V180.46h-16.917l.974-8.41-2.792-2.24-.422-.357h-12.566Z" fill="#525c6b" fill-rule="evenodd" data-name="Path 10355"/><g data-name="Group 28929"><g data-name="Group 28928" transform="translate(270 95)" clip-path="url(&quot;#a&quot;)"><path d="M59.71 85.36c-4.318-7.274-9.773-5.52-13.41-4.384-1.752.584-3.246 1.071-4.317.682-1.656-.52-1.819-1.104-2.306-2.922-.584-2.046-1.428-5.098-5.487-6.851-3.831-1.656-6.851.097-9.026 1.363-2.37 1.397-3.702 2.078-5.975 1.072-1.039-.455-1.363-1.04-1.526-1.526-.487-1.689.422-4.48 1.396-6.559 3.475-.195 6.234-2.078 6.234-4.448 0-2.5-2.987-4.48-6.72-4.48-3.67 0-6.722 1.98-6.722 4.48 0 1.169.715 2.24 1.819 3.02-1.104 2.564-2.208 6.363-1.234 9.61.682 2.273 2.24 3.929 4.545 4.968 4.903 2.143 8.377.097 10.942-1.364 2.078-1.234 2.923-1.59 4.06-1.104 1.655.747 1.915 1.591 2.402 3.312.552 2.078 1.46 5.228 5.877 6.656 2.792.91 5.39.098 7.695-.65 3.474-1.103 4.903-1.558 7.013 1.95a2.777 2.777 0 0 0 2.338 1.33c.487 0 .974-.13 1.396-.39 1.331-.746 1.753-2.434 1.007-3.766" fill="#e2e2e2" fill-rule="evenodd" data-name="Path 10356"/><path d="M58.736 85.911c-3.863-6.461-8.604-4.968-12.078-3.864-1.85.585-3.572 1.137-5.033.65-2.143-.682-2.467-1.786-2.987-3.67-.552-1.915-1.299-4.577-4.903-6.103-3.311-1.429-5.812 0-8.02 1.298-2.305 1.332-4.09 2.37-6.98 1.104-1.104-.487-1.786-1.169-2.078-2.208-.747-2.402.714-6.006 1.786-8.052h.162c2.727 0 4.935-1.46 4.935-3.28 0-1.85-2.208-3.311-4.935-3.311-2.76 0-4.968 1.461-4.968 3.312 0 .941.585 1.753 1.559 2.37-1.17 2.37-2.76 6.494-1.689 9.968.585 1.883 1.948 3.377 3.897 4.253 4.415 1.916 7.5.13 9.967-1.33 2.111-1.202 3.377-1.852 5.033-1.137 2.176.974 2.533 2.24 3.052 4.026.585 2.078 1.299 4.675 5.13 5.91 2.468.779 4.903.032 7.046-.618 3.15-1.039 5.325-1.688 7.598 1.332-1.169.617-1.948 1.558-1.948 2.597 0 1.85 2.24 3.312 4.967 3.312 2.728 0 4.968-1.461 4.968-3.312 0-1.688-1.98-3.084-4.48-3.247" fill="#ffbd66" fill-rule="evenodd" data-name="Path 10357"/><path d="M18.572 30.065c-5.844 0-10.552 4.708-10.552 10.52 0 8.409 10.552 21.397 10.552 21.397s10.553-12.988 10.553-21.397c0-5.812-4.74-10.52-10.553-10.52" fill="#2ba0bf" fill-rule="evenodd" data-name="Path 10358"/><path d="M22.793 40.682a4.213 4.213 0 0 1-4.22 4.221c-2.306 0-4.19-1.883-4.19-4.221a4.199 4.199 0 0 1 4.19-4.189c2.337 0 4.22 1.884 4.22 4.189" fill="#fff" fill-rule="evenodd" data-name="Path 10359"/></g></g></g><defs><clipPath id="a"><path d="M0 0h98v98H0V0z" data-name="Rectangle 11177"/></clipPath></defs></svg>