<svg xmlns="http://www.w3.org/2000/svg" width="20" height="20" viewBox="0 0 20 20">
    <path data-name="Path 4576" d="M0 0h20v20H0z" style="fill:none"/>
    <g data-name="Group 49">
        <path data-name="Path 157" d="M453.061 4456.111a2 2 0 1 0 2 2 2 2 0 0 0-2-2zm0 3.14a1.144 1.144 0 1 1 1.144-1.144 1.146 1.146 0 0 1-1.144 1.143z" transform="translate(-441.197 -4451.689)" style="fill:#254089"/>
        <path data-name="Path 158" d="M452.071 4450.643h-12.353a2.83 2.83 0 0 0-2.822 2.822v12.4a2.788 2.788 0 0 0 2.779 2.78h12.441a2.789 2.789 0 0 0 2.779-2.78v-12.4a2.83 2.83 0 0 0-2.824-2.822zm1.389 15.175a1.391 1.391 0 0 1-1.389 1.391h-12.353a1.389 1.389 0 0 1-1.389-1.391V4465l4.532-6.474 3.733 5.316a.478.478 0 0 0 .389.2.42.42 0 0 0 .392-.208L450 4460l3.46 5v.761zm0-2.483-3.072-4.441a.474.474 0 0 0-.39-.2.476.476 0 0 0-.391.206l-2.628 3.838-3.729-5.309a.473.473 0 0 0-.388-.2.475.475 0 0 0-.389.2l-4.142 5.919v-9.878a1.392 1.392 0 0 1 1.385-1.389h12.353a1.393 1.393 0 0 1 1.389 1.389v4.771z" transform="translate(-435.896 -4449.643)" style="fill:#254089"/>
    </g>
</svg>
