<svg xmlns="http://www.w3.org/2000/svg" xmlns:xlink="http://www.w3.org/1999/xlink" width="76" height="76" viewBox="0 0 76 76">
  <defs>
    <clipPath id="clip-path">
      <rect id="Rectangle_11210" data-name="Rectangle 11210" width="76" height="76" transform="translate(0.377 0.377)" fill="none"/>
    </clipPath>
  </defs>
  <g id="Group_29021" data-name="Group 29021" transform="translate(-0.377 -0.377)">
    <g id="Group_29020" data-name="Group 29020" clip-path="url(#clip-path)">
      <path id="Path_10429" data-name="Path 10429" d="M22.989,14.353l-11.941,1,1.48-10.257A16.939,16.939,0,0,1,11.15,1.8C4.567,4.351,0,9.914,0,16.343c0,8.9,8.675,16.074,19.34,16.074A22.364,22.364,0,0,0,28.4,30.555l9.594.638-1.021-8.241a13.992,13.992,0,0,0,1.709-6.608l-.026-.051a26.391,26.391,0,0,1-4.542.383,27.277,27.277,0,0,1-11.124-2.322" transform="translate(0 44.126)" fill="#2ba0bf"/>
      <path id="Path_10430" data-name="Path 10430" d="M1.062,35.158l1.327-9.211A15.379,15.379,0,0,1,.5,18.65C.5,8.878,10.043.917,21.806.917s21.3,7.961,21.3,17.733-9.542,17.707-21.3,17.707a24.593,24.593,0,0,1-10-2.067Z" transform="translate(12.282 22.48)" fill="#59c5ef"/>
      <path id="Path_10431" data-name="Path 10431" d="M8.187,19.171a1.29,1.29,0,0,1-1.3-1.3c0-3.47,1.965-4.924,3.547-6.072,1.378-1,2.271-1.658,2.271-3.5a4.529,4.529,0,1,0-9.058,0,1.289,1.289,0,1,1-2.577,0,7.119,7.119,0,0,1,14.237,0c0,3.164-1.863,4.516-3.342,5.588-1.454,1.046-2.475,1.812-2.475,3.98a1.29,1.29,0,0,1-1.3,1.3" transform="translate(26.182 29.001)" fill="#525c6b"/>
      <path id="Path_10432" data-name="Path 10432" d="M2.573,4.56A1.264,1.264,0,0,1,1.3,3.258a1.384,1.384,0,0,1,.357-.919,1.4,1.4,0,0,1,1.837,0,1.3,1.3,0,0,1,.383.919,1.213,1.213,0,0,1-.383.919,1.253,1.253,0,0,1-.919.383" transform="translate(31.796 48.919)" fill="#525c6b"/>
      <path id="Path_10433" data-name="Path 10433" d="M1.907,5.535A1.528,1.528,0,0,1,.835,5.075,1.483,1.483,0,0,1,.376,4,1.626,1.626,0,0,1,.835,2.932a1.63,1.63,0,0,1,2.143,0A1.6,1.6,0,0,1,3.412,4a1.462,1.462,0,0,1-.434,1.072,1.528,1.528,0,0,1-1.072.459" transform="translate(9.218 62.028)" fill="#fff"/>
      <path id="Path_10434" data-name="Path 10434" d="M.7,4.059A1.547,1.547,0,0,1,2.2,2.528,1.552,1.552,0,0,1,3.734,4.059,1.535,1.535,0,0,1,2.2,5.59,1.53,1.53,0,0,1,.7,4.059" transform="translate(17.111 61.973)" fill="#fff"/>
      <path id="Path_10435" data-name="Path 10435" d="M2.551,5.535a1.528,1.528,0,0,1-1.072-.459A1.483,1.483,0,0,1,1.02,4a1.626,1.626,0,0,1,.459-1.072,1.63,1.63,0,0,1,2.143,0A1.6,1.6,0,0,1,4.056,4a1.462,1.462,0,0,1-.434,1.072,1.528,1.528,0,0,1-1.072.459" transform="translate(25.005 62.028)" fill="#fff"/>
    </g>
  </g>
</svg>
