<svg id="Group_29037" data-name="Group 29037" xmlns="http://www.w3.org/2000/svg" width="60" height="60.058" viewBox="0 0 60 60.058">
  <path id="Path_10497" data-name="Path 10497" d="M0,1.969V44.856a.924.924,0,0,0,.941.922H21.383a3.862,3.862,0,0,1,2.988,1.3c.941,1.166,3.1,1.872,5.615,1.872s4.675-.705,5.615-1.872a3.765,3.765,0,0,1,2.96-1.3h20.5A.941.941,0,0,0,60,44.856V1.969a.941.941,0,0,0-.941-.922H.941A.924.924,0,0,0,0,1.969" transform="translate(0 5.493)" fill="#7a8e9b"/>
  <path id="Path_10498" data-name="Path 10498" d="M.22,46.471V.829c20.91,0,25.92,5.293,25.92,5.293V51.764S21.13,46.471.22,46.471" transform="translate(6.38 -0.829)" fill="#e2e2e2"/>
  <path id="Path_10499" data-name="Path 10499" d="M27,46.471V.829c-20.88,0-25.92,5.293-25.92,5.293V51.764S6.124,46.471,27,46.471" transform="translate(26.366 -0.829)" fill="#c6c6c6"/>
  <path id="Path_10500" data-name="Path 10500" d="M.22,8.508l15.6,11.88L26.14,7.908C17.5,7.908.22,1.1.22,1.1Z" transform="translate(6.38 6.972)" fill="#f1bb6b"/>
  <path id="Path_10501" data-name="Path 10501" d="M27,8.508,11.4,20.388,1.084,7.908C9.754,7.908,27,1.1,27,1.1Z" transform="translate(26.366 6.972)" fill="#e49a61"/>
  <path id="Path_10502" data-name="Path 10502" d="M11.344,40.685l-5.88-20.97,4.05-8.25L1.084,1.325v50.25Z" transform="translate(28.436 8.471)" fill="#db5743"/>
  <path id="Path_10503" data-name="Path 10503" d="M2.572,11.494l4.05,8.22-5.88,21L11,51.6V1.324Z" transform="translate(19.464 8.454)" fill="#f87670"/>
</svg>
