<svg id="Group_29035" data-name="Group 29035" xmlns="http://www.w3.org/2000/svg" width="60" height="60.756" viewBox="0 0 60 60.756">
  <path id="Path_10463" data-name="Path 10463" d="M35.858,20.578c0,10.83-8.31,19.65-17.55,19.65S.788,31.408.788,20.578c0-10.86,6.03-19.65,17.52-19.65s17.55,8.79,17.55,19.65" transform="translate(18.502 2.072)" fill="#525c6b"/>
  <path id="Path_10464" data-name="Path 10464" d="M42.774,5.646a35.564,35.564,0,0,0-5.43-2.22c-.81-.27-1.62-.51-2.46-.75-1.05-.27-2.1-.54-3.21-.72l-15.66.12a32.42,32.42,0,0,0-3.21.63c-.81.21-1.65.45-2.46.72a35.771,35.771,0,0,0-5.4,2.22A7.944,7.944,0,0,0,.594,12.7v2.43a5.046,5.046,0,0,0,2.67,4.5c3.33,1.77,9.99,4.26,20.61,4.26,10.59,0,17.22-2.49,20.58-4.26a5.046,5.046,0,0,0,2.67-4.5v-2.4a7.922,7.922,0,0,0-4.35-7.08" transform="translate(12.876 27.48)" fill="#2ba0bf"/>
  <path id="Path_10465" data-name="Path 10465" d="M1.186,2.108a50.124,50.124,0,0,0,5.49,8.7,49.424,49.424,0,0,0,5.49-8.79Z" transform="translate(31.494 30.893)" fill="#59c5ef"/>
  <path id="Path_10466" data-name="Path 10466" d="M18.567,3.728c.6.09,1.2.24,1.8.39l.03-.39a1.812,1.812,0,0,0-.54-1.32,1.637,1.637,0,0,0-1.32-.51l-15.66.09a1.844,1.844,0,0,0-1.83,1.86l.03.33,1.8-.33Z" transform="translate(27.327 27.87)" fill="#c6c6c6"/>
  <path id="Path_10467" data-name="Path 10467" d="M12.118,16.717c1.35-1.68,7.86-9.96,8.22-14.4a12.743,12.743,0,0,0-1.8-.36l-15.69.09-1.8.33c.3,4.41,6.87,12.69,8.22,14.37l.27.24v6.9h2.31v-6.9l.27-.27m-1.44-4.14a50.822,50.822,0,0,1-5.49-8.7l11.01-.09a51.572,51.572,0,0,1-5.52,8.79" transform="translate(27.356 27.509)" fill="#c6c6c6"/>
  <path id="Path_10468" data-name="Path 10468" d="M1.108,6.484c0,3.87,7.83,13.5,7.83,13.5s7.86-9.75,7.86-13.62a8.147,8.147,0,0,1-2.34-4.56H3.418a8.184,8.184,0,0,1-2.31,4.68" transform="translate(29.16 24.731)" fill="#e49a61"/>
  <path id="Path_10469" data-name="Path 10469" d="M24.876,5.6a1.953,1.953,0,0,0-1.62.3c0-.27-1.62-7.17-9.6-3.6-8.22-3.78-9.54,3.33-9.54,3.6h-.03a1.953,1.953,0,0,0-1.62-.3c-.96.27-1.65,1.59-1.5,3.33.18,1.74,1.08,3.06,2.04,2.97l.36-.09a14.091,14.091,0,0,0,5.01,7.86,8.805,8.805,0,0,0,10.59,0,14.091,14.091,0,0,0,5.01-7.86l.33.09c.99.09,1.89-1.23,2.07-2.97.15-1.74-.54-3.06-1.5-3.33" transform="translate(24.243 8.792)" fill="#f1bb6b"/>
  <path id="Path_10470" data-name="Path 10470" d="M2.121,5.727l-.39-1.95c1.89-.42,3.66-.87,5.31-1.41l.69,1.89a34.86,34.86,0,0,1-5.61,1.47" transform="translate(45.85 40.513)" fill="#c6c6c6"/>
  <path id="Path_10471" data-name="Path 10471" d="M2.387,13.751a1,1,0,0,1-1.02-.99V3.431a1,1,0,0,1,1.02-.99,1,1,0,0,1,1.02.99v9.33a1,1,0,0,1-1.02.99" transform="translate(36.78 41.545)" fill="#1a171b"/>
  <path id="Path_10472" data-name="Path 10472" d="M31.433,14.718c0,8.85-6.36,16.02-15.51,16.02S.383,23.568.383,14.718C.383,5.9,6.773.828,15.923.828s15.51,5.07,15.51,13.89" transform="translate(9.606 -0.828)" fill="#7a8e9b"/>
  <path id="Path_10473" data-name="Path 10473" d="M15.9,2.737l.09-.57c-1.14.21-1.8.39-1.8.39-.96.24-1.89.54-2.82.84a48.507,48.507,0,0,0-6.3,2.55A9.343,9.343,0,0,0,0,14.2v2.79a5.893,5.893,0,0,0,3.12,5.19c3.75,1.98,10.95,4.74,22.38,4.98V12.847c-3.24-1.98-9.6-6.42-9.6-10.11" transform="translate(0 33.599)" fill="#59c5ef"/>
  <path id="Path_10474" data-name="Path 10474" d="M21.381,6.034a44.735,44.735,0,0,0-6.3-2.58c-.93-.3-1.86-.57-2.82-.81-.6-.18-1.2-.33-1.83-.48a1.635,1.635,0,0,1,.15.66c0,3.69-6.39,8.1-9.63,10.11v14.28c11.43-.24,18.66-3,22.41-4.95a5.971,5.971,0,0,0,3.09-5.22v-2.79a9.3,9.3,0,0,0-5.07-8.22" transform="translate(24.385 33.512)" fill="#59c5ef"/>
  <path id="Path_10475" data-name="Path 10475" d="M22.67,3.527a2.028,2.028,0,0,0-1.89-1.41,1.961,1.961,0,0,0-1.59.78,1.951,1.951,0,0,0-.45,1.26c-.18,1.05-3.33,3.81-6.9,6.15h-.36c-3.57-2.34-6.72-5.1-6.9-6.15a1.975,1.975,0,0,0-.36-1.14,2.017,2.017,0,0,0-3.6.6l-.09.54c0,3.72,6.39,8.13,9.6,10.11v14.31l1.53.03,1.53-.03V14.267c3.24-1.98,9.6-6.39,9.6-10.11a2.337,2.337,0,0,0-.12-.63" transform="translate(13.727 32.149)" fill="#e2e2e2"/>
  <path id="Path_10476" data-name="Path 10476" d="M16.107,1.975H3.3A9.561,9.561,0,0,1,.6,7.315c0,3.12,9.12,8.64,9.12,8.64s9.09-5.52,9.09-8.64a9.371,9.371,0,0,1-2.7-5.34" transform="translate(15.625 29.474)" fill="#ffbd66"/>
  <path id="Path_10477" data-name="Path 10477" d="M5.892,2.721s-1.65,4.53-1.65,4.86a2.673,2.673,0,0,0-2.01-.36C1.062,7.551.222,9.2.4,11.331c.18,2.16,1.32,3.81,2.52,3.66l.45-.12a17.281,17.281,0,0,0,6.15,9.72,11.266,11.266,0,0,0,6.54,2.19,11.106,11.106,0,0,0,6.51-2.19,16.975,16.975,0,0,0,6.15-9.72l.45.12c1.2.15,2.37-1.5,2.52-3.66.21-2.13-.63-3.78-1.83-4.11a2.717,2.717,0,0,0-2.01.36c0-.33-1.65-4.86-1.65-4.86a9.165,9.165,0,0,0-10.14,0,9.33,9.33,0,0,1-10.17,0" transform="translate(9.447 8.487)" fill="#fddc85"/>
  <path id="Path_10478" data-name="Path 10478" d="M1.623,6.76l-.33-2.01a50.882,50.882,0,0,0,8.55-2.16l.69,1.92a56.064,56.064,0,0,1-8.91,2.25" transform="translate(34.436 45.866)" fill="#e2e2e2"/>
</svg>
