<svg width="32" height="30" viewBox="0 0 32 30" fill="none" xmlns="http://www.w3.org/2000/svg">
<path d="M30.12 8H1.88C1.38139 8 0.903208 8.19807 0.550639 8.55064C0.198071 8.90321 0 9.38139 0 9.88V28.12C0 28.6186 0.198071 29.0968 0.550639 29.4494C0.903208 29.8019 1.38139 30 1.88 30H30.12C30.6186 30 31.0968 29.8019 31.4494 29.4494C31.8019 29.0968 32 28.6186 32 28.12V9.88C32 9.38139 31.8019 8.90321 31.4494 8.55064C31.0968 8.19807 30.6186 8 30.12 8V8ZM30 28H2V10H30V28Z" fill="#254089"/>
<path d="M28.1396 1C28.1396 0.734784 28.0343 0.48043 27.8468 0.292893C27.6592 0.105357 27.4049 0 27.1396 0H5.13965C4.87443 0 4.62008 0.105357 4.43254 0.292893C4.24501 0.48043 4.13965 0.734784 4.13965 1V2H28.1396V1Z" fill="#254089"/>
<path d="M30.1201 5C30.1201 4.73478 30.0148 4.48043 29.8272 4.29289C29.6397 4.10536 29.3853 4 29.1201 4H3.12012C2.8549 4 2.60055 4.10536 2.41301 4.29289C2.22547 4.48043 2.12012 4.73478 2.12012 5V6H30.1201V5Z" fill="#254089"/>
<path d="M10.8198 24.7899C11.0969 24.9697 11.4195 25.0668 11.7498 25.0699C11.9878 25.0694 12.223 25.0183 12.4398 24.9199L22.2098 20.5599C22.5118 20.4287 22.7689 20.2121 22.9495 19.9367C23.1301 19.6614 23.2263 19.3392 23.2263 19.0099C23.2263 18.6806 23.1301 18.3585 22.9495 18.0832C22.7689 17.8078 22.5118 17.5912 22.2098 17.4599L12.4398 13.0999C12.1813 12.9851 11.8982 12.9366 11.6161 12.9589C11.3341 12.9811 11.0621 13.0734 10.8248 13.2273C10.5874 13.3812 10.3923 13.592 10.2569 13.8404C10.1216 14.0888 10.0504 14.3671 10.0498 14.6499V23.3699C10.0503 23.6519 10.121 23.9294 10.2554 24.1772C10.3898 24.4251 10.5838 24.6357 10.8198 24.7899V24.7899ZM11.4498 14.6499C11.4495 14.5997 11.4622 14.5503 11.4868 14.5064C11.5113 14.4626 11.5468 14.4259 11.5898 14.3999C11.6422 14.3855 11.6975 14.3855 11.7498 14.3999C11.7893 14.3909 11.8303 14.3909 11.8698 14.3999L21.6398 18.7499C21.6949 18.7725 21.7418 18.8115 21.774 18.8615C21.8062 18.9116 21.8222 18.9704 21.8198 19.0299C21.8216 19.0881 21.8052 19.1453 21.7729 19.1937C21.7406 19.2421 21.6941 19.2792 21.6398 19.2999L11.8698 23.6599C11.8272 23.6845 11.779 23.6975 11.7298 23.6975C11.6807 23.6975 11.6324 23.6845 11.5898 23.6599C11.5481 23.6326 11.5136 23.5956 11.4892 23.5521C11.4648 23.5086 11.4513 23.4598 11.4498 23.4099V14.6499Z" fill="#254089"/>
</svg>
