<svg width="95" height="18" viewBox="0 0 95 18" fill="none" xmlns="http://www.w3.org/2000/svg">
<path d="M13.623 10.909C13.623 6.44698 6.80301 -1.52588e-05 6.80301 -1.52588e-05C6.80301 -1.52588e-05 7.62939e-06 6.48098 7.62939e-06 10.909C0.0217236 12.7012 0.748921 14.4127 2.02396 15.6724C3.29901 16.932 5.01915 17.6385 6.81151 17.6385C8.60387 17.6385 10.324 16.932 11.5991 15.6724C12.8741 14.4127 13.6013 12.7012 13.623 10.909" fill="#2BA0BF"/>
<path d="M12.043 11.248C12.0135 9.48986 11.3932 7.79279 10.282 6.43001C10.282 6.43001 11.351 12.724 7.16 16.13C8.45455 16.1289 9.69579 15.6143 10.6113 14.699C11.5268 13.7837 12.0417 12.5426 12.043 11.248" fill="#59C5EF"/>
<path d="M33.938 10.909C33.938 6.44698 27.118 -1.52588e-05 27.118 -1.52588e-05C27.118 -1.52588e-05 20.315 6.48098 20.315 10.909C20.3367 12.7012 21.0639 14.4127 22.339 15.6724C23.614 16.932 25.3342 17.6385 27.1265 17.6385C28.9189 17.6385 30.639 16.932 31.9141 15.6724C33.1891 14.4127 33.9163 12.7012 33.938 10.909" fill="#2BA0BF"/>
<path d="M32.358 11.248C32.3285 9.48986 31.7082 7.79279 30.597 6.43001C30.597 6.43001 31.666 12.724 27.475 16.13C28.7696 16.1289 30.0108 15.6143 30.9263 14.699C31.8418 13.7837 32.3567 12.5426 32.358 11.248" fill="#59C5EF"/>
<path d="M74.569 10.909C74.569 6.44698 67.749 -1.52588e-05 67.749 -1.52588e-05C67.749 -1.52588e-05 60.946 6.48098 60.946 10.909C60.9677 12.7012 61.6949 14.4127 62.97 15.6724C64.245 16.932 65.9651 17.6385 67.7575 17.6385C69.5499 17.6385 71.27 16.932 72.545 15.6724C73.8201 14.4127 74.5473 12.7012 74.569 10.909" fill="#2BA0BF"/>
<path d="M72.989 11.248C72.9595 9.48986 72.3392 7.79279 71.228 6.43001C71.228 6.43001 72.297 12.724 68.106 16.13C69.4005 16.1289 70.6418 15.6143 71.5573 14.699C72.4728 13.7837 72.9877 12.5426 72.989 11.248" fill="#59C5EF"/>
<path d="M54.254 10.909C54.254 6.44698 47.434 -1.52588e-05 47.434 -1.52588e-05C47.434 -1.52588e-05 40.631 6.48098 40.631 10.909C40.6527 12.7012 41.3799 14.4127 42.655 15.6724C43.93 16.932 45.6501 17.6385 47.4425 17.6385C49.2349 17.6385 50.955 16.932 52.23 15.6724C53.5051 14.4127 54.2323 12.7012 54.254 10.909" fill="#2BA0BF"/>
<path d="M52.674 11.248C52.6445 9.48986 52.0242 7.79279 50.913 6.43001C50.913 6.43001 51.982 12.724 47.791 16.13C49.0855 16.1289 50.3268 15.6143 51.2423 14.699C52.1578 13.7837 52.6727 12.5426 52.674 11.248" fill="#59C5EF"/>
<path d="M94.885 10.909C94.885 6.44698 88.065 -1.52588e-05 88.065 -1.52588e-05C88.065 -1.52588e-05 81.262 6.48098 81.262 10.909C81.2837 12.7012 82.0109 14.4127 83.286 15.6724C84.561 16.932 86.2811 17.6385 88.0735 17.6385C89.8659 17.6385 91.586 16.932 92.861 15.6724C94.1361 14.4127 94.8633 12.7012 94.885 10.909" fill="#2BA0BF"/>
<path d="M93.305 11.248C93.2755 9.48986 92.6552 7.79279 91.544 6.43001C91.544 6.43001 92.613 12.724 88.422 16.13C89.7165 16.1289 90.9578 15.6143 91.8733 14.699C92.7887 13.7837 93.3037 12.5426 93.305 11.248" fill="#59C5EF"/>
</svg>
