<svg width="122" height="122" viewBox="0 0 122 122" fill="none" xmlns="http://www.w3.org/2000/svg">
<path d="M5.166 61.648C5.124 47.8814 10.2755 34.6053 19.592 24.47L23.059 28.607L28.705 13.116L12.431 16.023L16.009 20.216C7.9199 28.8558 2.53398 39.6726 0.514381 51.3345C-1.50521 62.9964 -0.0703206 74.9944 4.64239 85.8512C9.35511 96.708 17.1399 105.95 27.0383 112.438C36.9367 118.927 48.5165 122.379 60.352 122.37V116.779C45.7278 116.771 31.7041 110.962 21.3581 100.626C11.0121 90.2901 5.18877 76.2722 5.166 61.648" fill="white"/>
<path d="M121.017 61.648C121.012 45.5454 114.613 30.1039 103.226 18.7176C91.8401 7.33138 76.3986 0.932303 60.296 0.927002V6.462C74.9286 6.47365 88.9585 12.2917 99.3052 22.6385C109.652 32.9854 115.47 47.0154 115.481 61.648C115.508 75.4024 110.381 88.6678 101.111 98.829L97.644 94.692L91.944 110.18L108.211 107.272L104.689 103.079C115.199 91.8452 121.037 77.0314 121.017 61.648" fill="white"/>
<path d="M94.178 68.637C94.178 50.074 65.886 23.348 65.886 23.348C65.886 23.348 37.539 50.298 37.539 68.637C37.5835 76.1187 40.5867 83.2787 45.8928 88.5534C51.1989 93.8281 58.3767 96.7887 65.8585 96.7887C73.3403 96.7887 80.5181 93.8281 85.8242 88.5534C91.1303 83.2787 94.1335 76.1187 94.178 68.637Z" fill="#2BA0BF"/>
<path d="M87.581 70.035C87.4448 62.739 84.8437 55.7038 80.201 50.074C80.201 50.074 84.73 76.185 67.285 90.387C69.955 90.3861 72.5985 89.8587 75.0644 88.8349C77.5303 87.8112 79.7701 86.3112 81.6556 84.4208C83.5412 82.5305 85.0354 80.2869 86.0528 77.8184C87.0703 75.3499 87.5909 72.705 87.585 70.035" fill="#59C5EF"/>
<path d="M56.665 59.131C56.665 48.06 39.724 32.07 39.724 32.07C39.724 32.07 22.779 48.173 22.779 59.131C22.779 61.3558 23.2172 63.5588 24.0686 65.6142C24.92 67.6697 26.1679 69.5373 27.741 71.1105C29.3142 72.6836 31.1818 73.9315 33.2373 74.7829C35.2927 75.6343 37.4957 76.0725 39.7205 76.0725C41.9453 76.0725 44.1483 75.6343 46.2037 74.7829C48.2592 73.9315 50.1268 72.6836 51.6999 71.1105C53.2731 69.5373 54.521 67.6697 55.3724 65.6142C56.2238 63.5588 56.662 61.3558 56.662 59.131" fill="#59C5EF"/>
<path d="M52.692 60.026C52.6116 55.6366 51.0557 51.4022 48.275 48.005C48.275 48.005 50.959 63.716 40.559 72.159C42.1527 72.1605 43.7311 71.8476 45.2038 71.2384C46.6765 70.6292 48.0146 69.7355 49.1416 68.6086C50.2685 67.4816 51.1621 66.1435 51.7714 64.6708C52.3806 63.1981 52.6934 61.6197 52.692 60.026" fill="#2BA0BF"/>
</svg>
