<svg xmlns="http://www.w3.org/2000/svg" width="45.207" height="46.588" viewBox="0 0 45.207 46.588">
  <g id="Group_29010" data-name="Group 29010" transform="translate(-17.55 -30.799)">
    <g id="Group_29011" data-name="Group 29011" transform="translate(17.55 30.799)">
      <path id="Path_10423" data-name="Path 10423" d="M36.539,29.9c0-11.753-17.913-28.675-17.913-28.675S.678,18.292.678,29.9a17.931,17.931,0,0,0,35.861,0" transform="translate(8.668 -1.229)" fill="#2ba0bf"/>
      <path id="Path_10424" data-name="Path 10424" d="M14.061,14.345A20.465,20.465,0,0,0,9.388,1.707S12.255,18.239,1.21,27.231A12.857,12.857,0,0,0,14.061,14.345" transform="translate(26.969 15.215)" fill="#59c5ef"/>
      <path id="Path_10425" data-name="Path 10425" d="M21.867,18.519c0-7.009-10.727-17.134-10.727-17.134S.414,11.581.414,18.519a10.727,10.727,0,0,0,21.453,0" transform="translate(-0.414 4.138)" fill="#59c5ef"/>
      <path id="Path_10426" data-name="Path 10426" d="M8.414,9.281a12.373,12.373,0,0,0-2.8-7.611s1.7,9.948-4.885,15.293A7.675,7.675,0,0,0,8.414,9.281" transform="translate(10.526 13.942)" fill="#2ba0bf"/>
    </g>
  </g>
</svg>
