<svg width="68" height="77" viewBox="0 0 68 77" fill="none" xmlns="http://www.w3.org/2000/svg">
<path d="M3.52 51.385H3.45C2.53558 51.3863 1.65898 51.7501 1.0123 52.3966C0.36561 53.0431 0.00158704 53.9196 0 54.834L0 67.54C0.00158632 68.4543 0.365471 69.3306 1.01194 69.9771C1.65841 70.6235 2.53476 70.9874 3.449 70.989H3.519C4.43324 70.9874 5.30959 70.6235 5.95606 69.9771C6.60253 69.3306 6.96641 68.4543 6.968 67.54V54.834C6.96641 53.9199 6.60267 53.0437 5.95641 52.3973C5.31016 51.7509 4.43407 51.3869 3.52 51.385" fill="#7A8E9B"/>
<path d="M51.491 63.281C50.291 63.915 49.027 64.548 47.76 65.217H47.725C44.6 66.7314 41.1632 67.4912 37.691 67.435C34.5985 67.3839 31.5244 66.9472 28.54 66.135C28.3835 66.0987 28.2359 66.0312 28.1061 65.9364C27.9764 65.8417 27.8671 65.7216 27.7849 65.5836C27.7027 65.4455 27.6493 65.2923 27.6278 65.1331C27.6064 64.9738 27.6173 64.8119 27.66 64.657C27.7526 64.3545 27.957 64.0987 28.2316 63.9417C28.5062 63.7847 28.8304 63.7383 29.138 63.812C36.177 65.677 41.773 65.466 46.665 63.073C48.851 61.979 48.891 61.557 48.991 60.747C49.1164 60.2385 49.1244 59.7081 49.0146 59.1959C48.9048 58.6838 48.6799 58.2034 48.357 57.791C48.0334 57.4847 47.6521 57.2461 47.2352 57.089C46.8183 56.9318 46.3742 56.8594 45.929 56.876C34.529 57.087 32.414 55.855 30.021 54.448C27.875 53.18 25.376 51.737 11.967 51.491H11.931C11.5699 51.4886 11.212 51.559 10.8786 51.698C10.5453 51.837 10.2434 52.0417 9.991 52.3C9.46077 52.8197 9.15862 53.5286 9.151 54.271V68.807C9.14941 69.3539 9.3 69.8905 9.58591 70.3567C9.87183 70.8229 10.2818 71.2004 10.77 71.447C17.422 74.647 37.659 84.54 66.132 62.647L66.238 62.577C66.484 62.436 68.596 61.028 67.611 59.304C65.816 56.066 60.326 58.67 51.492 63.281" fill="#F1BB6B"/>
<path d="M4.89099 67.399C4.88237 67.7662 4.73027 68.1155 4.46728 68.3719C4.20429 68.6284 3.85132 68.7716 3.48399 68.771C3.11534 68.771 2.76179 68.6246 2.50112 68.3639C2.24044 68.1032 2.09399 67.7496 2.09399 67.381C2.09399 67.0123 2.24044 66.6588 2.50112 66.3981C2.76179 66.1374 3.11534 65.991 3.48399 65.991C3.85692 65.9923 4.21418 66.1411 4.47779 66.4049C4.7414 66.6687 4.88994 67.0261 4.89099 67.399" fill="white"/>
<path d="M48.781 35.829C48.781 26.572 34.636 13.195 34.636 13.195C34.636 13.195 20.519 26.643 20.519 35.829C20.519 39.5768 22.0078 43.1711 24.6579 45.8211C27.3079 48.4712 30.9022 49.96 34.65 49.96C38.3978 49.96 41.992 48.4712 44.6421 45.8211C47.2922 43.1711 48.781 39.5768 48.781 35.829" fill="#2BA0BF"/>
<path d="M45.472 36.567C45.4049 32.9112 44.1006 29.3861 41.772 26.567C41.772 26.567 44.032 39.629 35.332 46.704C38.0209 46.7043 40.5997 45.6364 42.5013 43.7354C44.4029 41.8344 45.4715 39.2559 45.472 36.567" fill="#59C5EF"/>
<path d="M22.701 5.948C22.9414 5.94849 23.1795 5.90054 23.401 5.807C23.8256 5.62481 24.1606 5.28146 24.3321 4.85242C24.5037 4.42338 24.4979 3.94376 24.316 3.519C24.1309 3.0866 23.7858 2.74257 23.3527 2.55896C22.9197 2.37535 22.4325 2.36641 21.993 2.534C21.5618 2.72848 21.2244 3.0849 21.0539 3.52618C20.8834 3.96745 20.8935 4.4581 21.082 4.892C21.2173 5.20828 21.4433 5.47738 21.7315 5.66533C22.0196 5.85327 22.357 5.95163 22.701 5.948" fill="#59C5EF"/>
<path d="M34.526 3.555C34.7578 3.55727 34.9876 3.5133 35.2022 3.42566C35.4168 3.33801 35.6117 3.20846 35.7756 3.04457C35.9395 2.88069 36.069 2.68576 36.1567 2.4712C36.2443 2.25664 36.2883 2.02676 36.286 1.795C36.2848 1.32533 36.1001 0.874719 35.7713 0.539355C35.4424 0.203992 34.9956 0.0104357 34.526 0C34.0503 0.00131945 33.5945 0.190859 33.2582 0.527201C32.9219 0.863543 32.7323 1.31934 32.731 1.795C32.7414 2.26456 32.935 2.71144 33.2704 3.04027C33.6057 3.36909 34.0563 3.55381 34.526 3.555" fill="#59C5EF"/>
<path d="M5.35 43.008C4.91176 43.1952 4.56565 43.5486 4.38756 43.9906C4.20948 44.4326 4.21395 44.9273 4.4 45.366C4.5409 45.6854 4.77308 45.9561 5.06737 46.144C5.36165 46.3319 5.70491 46.4286 6.054 46.422C6.2809 46.4186 6.50616 46.3829 6.723 46.316C7.15117 46.1171 7.48762 45.7627 7.66405 45.3248C7.84048 44.8868 7.84368 44.3982 7.673 43.958C7.47962 43.5336 7.13157 43.1989 6.69987 43.0224C6.26817 42.8458 5.78536 42.8407 5.35 43.008" fill="#59C5EF"/>
<path d="M5.314 22.595C5.52345 22.692 5.7522 22.7402 5.983 22.736C6.3352 22.7359 6.67963 22.6325 6.97363 22.4386C7.26763 22.2446 7.49827 21.9687 7.637 21.645C7.8157 21.2106 7.81622 20.7234 7.63843 20.2887C7.46065 19.8539 7.11886 19.5067 6.687 19.322C6.255 19.1507 5.77304 19.1556 5.34463 19.3357C4.91622 19.5158 4.57554 19.8568 4.39577 20.2853C4.21599 20.7139 4.21146 21.1958 4.38315 21.6277C4.55484 22.0596 4.88905 22.4069 5.314 22.595" fill="#59C5EF"/>
<path d="M5.455 32.802C5.43231 32.3398 5.2338 31.9037 4.90011 31.583C4.56642 31.2623 4.12278 31.0813 3.66 31.077C3.19906 31.0764 2.75633 31.2568 2.42714 31.5795C2.09795 31.9021 1.90865 32.3411 1.9 32.802C1.898 33.0383 1.94306 33.2726 2.03256 33.4913C2.12206 33.71 2.2542 33.9086 2.42128 34.0757C2.58836 34.2428 2.78704 34.3749 3.00572 34.4644C3.2244 34.5539 3.45872 34.599 3.695 34.597C4.16456 34.5866 4.61144 34.393 4.94026 34.0576C5.26909 33.7223 5.45381 33.2717 5.455 32.802" fill="#59C5EF"/>
<path d="M12.67 12.67C12.9067 12.6779 13.1423 12.6349 13.3609 12.5438C13.5795 12.4527 13.776 12.3157 13.937 12.142C14.2637 11.806 14.4436 11.3539 14.4371 10.8852C14.4305 10.4166 14.238 9.96974 13.902 9.64299C13.7356 9.48121 13.539 9.35377 13.3234 9.26797C13.1077 9.18217 12.8773 9.13968 12.6453 9.14293C12.1766 9.1495 11.7297 9.34197 11.403 9.67799C11.0808 10.0144 10.9009 10.4622 10.9009 10.928C10.9009 11.3938 11.0808 11.8416 11.403 12.178C11.5706 12.3405 11.7691 12.4679 11.9867 12.5526C12.2043 12.6372 12.4366 12.6775 12.67 12.671" fill="#59C5EF"/>
<path d="M63.915 42.973C63.4756 42.8041 62.9879 42.8124 62.5545 42.9962C62.1211 43.1799 61.7761 43.5248 61.592 43.958C61.502 44.1703 61.4552 44.3985 61.4543 44.6291C61.4535 44.8598 61.4986 45.0883 61.587 45.3013C61.6755 45.5143 61.8055 45.7076 61.9694 45.8698C62.1334 46.032 62.328 46.1599 62.542 46.246C62.7525 46.3397 62.9805 46.3878 63.211 46.387C63.5632 46.3869 63.9076 46.2835 64.2016 46.0896C64.4956 45.8956 64.7263 45.6197 64.865 45.296C64.9574 45.0814 65.0062 44.8505 65.0083 44.6168C65.0105 44.3831 64.9661 44.1514 64.8776 43.9351C64.7891 43.7188 64.6585 43.5223 64.4932 43.3571C64.3279 43.1919 64.1313 43.0613 63.915 42.973" fill="#59C5EF"/>
<path d="M55.292 53.392C55.0405 53.6369 54.8688 53.9521 54.7994 54.2962C54.73 54.6403 54.7661 54.9974 54.9031 55.3206C55.04 55.6438 55.2713 55.9182 55.5668 56.1078C55.8623 56.2973 56.2081 56.3933 56.559 56.383C56.9071 56.3865 57.2483 56.2857 57.5386 56.0935C57.8289 55.9012 58.0549 55.6264 58.1875 55.3045C58.3201 54.9826 58.3532 54.6284 58.2825 54.2875C58.2118 53.9466 58.0406 53.6347 57.791 53.392C57.633 53.2172 57.4402 53.0775 57.2249 52.9819C57.0095 52.8863 56.7766 52.8369 56.541 52.8369C56.3054 52.8369 56.0725 52.8863 55.8572 52.9819C55.6418 53.0775 55.449 53.2172 55.291 53.392" fill="#59C5EF"/>
<path d="M63.175 22.56C63.4143 22.5501 63.6505 22.5025 63.875 22.419C64.0879 22.3316 64.2815 22.2029 64.4446 22.0405C64.6077 21.878 64.737 21.6849 64.8253 21.4724C64.9136 21.2598 64.959 21.0318 64.9589 20.8017C64.9589 20.5715 64.9134 20.3436 64.825 20.131C64.6409 19.6895 64.2897 19.3386 63.8481 19.1548C63.4064 18.9711 62.91 18.9694 62.467 19.15C62.037 19.346 61.7006 19.7023 61.5297 20.1428C61.3587 20.5834 61.3667 21.0733 61.552 21.508C61.6921 21.8213 61.92 22.0873 62.2079 22.274C62.4959 22.4607 62.8318 22.56 63.175 22.56" fill="#59C5EF"/>
<path d="M67.364 32.626C67.3627 32.1596 67.1768 31.7127 66.8471 31.3829C66.5173 31.0532 66.0704 30.8673 65.604 30.866C65.1304 30.874 64.6785 31.0656 64.3436 31.4006C64.0087 31.7355 63.817 32.1874 63.809 32.661V32.802C63.8197 33.2714 64.0134 33.718 64.3487 34.0466C64.684 34.3752 65.1345 34.5598 65.604 34.561C66.0704 34.5597 66.5173 34.3738 66.8471 34.044C67.1768 33.7143 67.3627 33.2674 67.364 32.801V32.626Z" fill="#59C5EF"/>
<path d="M56.453 12.565C56.9237 12.5425 57.3718 12.3565 57.72 12.039C58.0439 11.7015 58.2219 11.25 58.2155 10.7822C58.2091 10.3145 58.0188 9.86802 57.6858 9.53947C57.3527 9.21093 56.9038 9.02668 56.436 9.0266C55.9682 9.02651 55.5191 9.21058 55.186 9.539C55.0187 9.70137 54.8857 9.89568 54.7949 10.1104C54.7041 10.3251 54.6573 10.5559 54.6573 10.789C54.6573 11.0221 54.7041 11.2529 54.7949 11.4676C54.8857 11.6823 55.0187 11.8766 55.186 12.039C55.5249 12.3711 55.9785 12.5602 56.453 12.567" fill="#59C5EF"/>
<path d="M45.719 5.737C45.9285 5.83403 46.1572 5.88224 46.388 5.878C46.7402 5.87791 47.0846 5.77449 47.3786 5.58057C47.6726 5.38664 47.9033 5.11073 48.042 4.787C48.2151 4.34797 48.2089 3.85851 48.0247 3.42402C47.8404 2.98954 47.4929 2.64478 47.057 2.464C46.8445 2.37563 46.6165 2.33012 46.3864 2.33006C46.1562 2.33001 45.9282 2.37542 45.7157 2.46369C45.5031 2.55196 45.31 2.68135 45.1475 2.84443C44.9851 3.00751 44.8565 3.20107 44.769 3.414C44.587 3.84804 44.5849 4.33658 44.763 4.7722C44.9412 5.20782 45.285 5.55486 45.719 5.737" fill="#59C5EF"/>
</svg>
