<svg width="74" height="74" viewBox="0 0 74 74" fill="none" xmlns="http://www.w3.org/2000/svg">
<path d="M37 74C57.4345 74 74 57.4345 74 37C74 16.5655 57.4345 0 37 0C16.5655 0 0 16.5655 0 37C0 57.4345 16.5655 74 37 74Z" fill="url(#paint0_linear_1_8)"/>
<path d="M36.433 48C36.1678 48 35.9134 47.8946 35.7259 47.7071C35.5384 47.5196 35.433 47.2652 35.433 47V38.568H27C26.7348 38.568 26.4804 38.4626 26.2929 38.2751C26.1054 38.0876 26 37.8332 26 37.568V36.433C26 36.1678 26.1054 35.9134 26.2929 35.7259C26.4804 35.5384 26.7348 35.433 27 35.433H35.433V27C35.433 26.7348 35.5384 26.4804 35.7259 26.2929C35.9134 26.1054 36.1678 26 36.433 26H37.568C37.8332 26 38.0876 26.1054 38.2751 26.2929C38.4626 26.4804 38.568 26.7348 38.568 27V35.432H47C47.2652 35.432 47.5196 35.5374 47.7071 35.7249C47.8946 35.9124 48 36.1668 48 36.432V37.567C48 37.8322 47.8946 38.0866 47.7071 38.2741C47.5196 38.4616 47.2652 38.567 47 38.567H38.568V47C38.568 47.2652 38.4626 47.5196 38.2751 47.7071C38.0876 47.8946 37.8332 48 37.568 48H36.433Z" fill="white"/>
<defs>
<linearGradient id="paint0_linear_1_8" x1="37" y1="81.4" x2="37" y2="-7.4" gradientUnits="userSpaceOnUse">
<stop stop-color="#1E488E"/>
<stop offset="0.25" stop-color="#1B4FA7"/>
<stop offset="0.746" stop-color="#2F9FBF"/>
<stop offset="1" stop-color="#36ABCC"/>
</linearGradient>
</defs>
</svg>
