<svg xmlns="http://www.w3.org/2000/svg" width="31.529" height="24.673" viewBox="0 0 31.529 24.673">
  <g id="inbox" transform="translate(-1283.998 -4028)" fill="#fff" opacity="0.26">
    <path d="M 1314.777099609375 4052.42236328125 L 1295.5927734375 4052.42236328125 C 1295.317260742188 4052.42236328125 1295.093139648438 4052.1982421875 1295.093139648438 4051.9228515625 L 1295.093139648438 4050.338134765625 C 1295.093139648438 4050.062744140625 1295.317260742188 4049.838623046875 1295.5927734375 4049.838623046875 L 1312.56591796875 4049.838623046875 L 1312.81591796875 4049.838623046875 L 1312.81591796875 4049.588623046875 L 1312.81591796875 4039.015869140625 C 1312.81591796875 4038.740478515625 1313.0400390625 4038.516357421875 1313.315551757812 4038.516357421875 L 1314.777099609375 4038.516357421875 C 1315.052490234375 4038.516357421875 1315.276611328125 4038.740478515625 1315.276611328125 4039.015869140625 L 1315.276611328125 4050.338134765625 L 1315.276611328125 4051.9228515625 C 1315.276611328125 4052.1982421875 1315.052490234375 4052.42236328125 1314.777099609375 4052.42236328125 Z M 1285.26123046875 4049.338623046875 C 1284.70361328125 4049.338623046875 1284.25 4048.879150390625 1284.25 4048.314208984375 C 1284.25 4048.175048828125 1284.276977539062 4048.040771484375 1284.329956054688 4047.915283203125 L 1284.394165039062 4047.763671875 L 1284.280151367188 4047.644775390625 L 1284.248046875 4047.611328125 L 1284.248046875 4042.080322265625 L 1284.25 4030.00048828125 C 1284.25 4029.03515625 1285.035278320312 4028.249755859375 1286.000610351562 4028.249755859375 L 1305.645629882812 4028.249755859375 C 1306.6103515625 4028.249755859375 1307.395263671875 4029.03515625 1307.395263671875 4030.00048828125 L 1307.395263671875 4042.914306640625 C 1307.395263671875 4043.879150390625 1306.6103515625 4044.6640625 1305.645629882812 4044.6640625 L 1290.3466796875 4044.6640625 L 1290.24072265625 4044.6640625 L 1290.167114257812 4044.740234375 L 1285.818115234375 4049.23046875 L 1285.79150390625 4049.20263671875 L 1285.63427734375 4049.266357421875 C 1285.515625 4049.314208984375 1285.39013671875 4049.338623046875 1285.26123046875 4049.338623046875 Z M 1286.704711914062 4030.832763671875 L 1286.704711914062 4031.082763671875 L 1286.704711914062 4043.9345703125 L 1286.704711914062 4044.556640625 L 1287.13525390625 4044.107666015625 L 1289.031494140625 4042.12890625 L 1304.690673828125 4042.12890625 L 1304.940673828125 4042.12890625 L 1304.940673828125 4041.87890625 L 1304.940673828125 4031.082763671875 L 1304.940673828125 4030.832763671875 L 1304.690673828125 4030.832763671875 L 1286.954711914062 4030.832763671875 L 1286.704711914062 4030.832763671875 Z" stroke="none"/>
    <path d="M 1314.777099609375 4052.17236328125 C 1314.914672851562 4052.17236328125 1315.026611328125 4052.060546875 1315.026611328125 4051.9228515625 L 1315.026611328125 4039.015869140625 C 1315.026611328125 4038.878173828125 1314.914672851562 4038.766357421875 1314.777099609375 4038.766357421875 L 1313.315551757812 4038.766357421875 C 1313.177856445312 4038.766357421875 1313.06591796875 4038.878173828125 1313.06591796875 4039.015869140625 L 1313.06591796875 4050.088623046875 L 1295.5927734375 4050.088623046875 C 1295.455078125 4050.088623046875 1295.343139648438 4050.200439453125 1295.343139648438 4050.338134765625 L 1295.343139648438 4051.9228515625 C 1295.343139648438 4052.060546875 1295.455078125 4052.17236328125 1295.5927734375 4052.17236328125 L 1314.777099609375 4052.17236328125 M 1285.26123046875 4049.088623046875 C 1285.357788085938 4049.088623046875 1285.451782226562 4049.070556640625 1285.54052734375 4049.03466796875 L 1285.736938476562 4048.955078125 L 1290.134887695312 4044.4140625 L 1305.645629882812 4044.4140625 C 1306.472534179688 4044.4140625 1307.145263671875 4043.7412109375 1307.145263671875 4042.914306640625 L 1307.145263671875 4030.00048828125 C 1307.145263671875 4029.173095703125 1306.472534179688 4028.499755859375 1305.645629882812 4028.499755859375 L 1286.000610351562 4028.499755859375 C 1285.173217773438 4028.499755859375 1284.5 4029.173095703125 1284.5 4030.00048828125 L 1284.498046875 4047.5107421875 L 1284.6884765625 4047.709228515625 L 1284.560302734375 4048.012451171875 C 1284.520263671875 4048.107177734375 1284.5 4048.208740234375 1284.5 4048.314208984375 C 1284.5 4048.7412109375 1284.841430664062 4049.088623046875 1285.26123046875 4049.088623046875 M 1286.454711914062 4030.582763671875 L 1305.190673828125 4030.582763671875 L 1305.190673828125 4042.37890625 L 1289.13818359375 4042.37890625 L 1286.454711914062 4045.178955078125 L 1286.454711914062 4030.582763671875 M 1314.777099609375 4052.67236328125 L 1295.5927734375 4052.67236328125 C 1295.178833007812 4052.67236328125 1294.843139648438 4052.336669921875 1294.843139648438 4051.9228515625 L 1294.843139648438 4050.338134765625 C 1294.843139648438 4049.924072265625 1295.178833007812 4049.588623046875 1295.5927734375 4049.588623046875 L 1312.56591796875 4049.588623046875 L 1312.56591796875 4039.015869140625 C 1312.56591796875 4038.60205078125 1312.901611328125 4038.266357421875 1313.315551757812 4038.266357421875 L 1314.777099609375 4038.266357421875 C 1315.191040039062 4038.266357421875 1315.526611328125 4038.60205078125 1315.526611328125 4039.015869140625 L 1315.526611328125 4051.9228515625 C 1315.526611328125 4052.336669921875 1315.191040039062 4052.67236328125 1314.777099609375 4052.67236328125 Z M 1285.817504882812 4049.590576171875 L 1285.816528320312 4049.590576171875 L 1285.72802734375 4049.498046875 C 1285.57958984375 4049.55810546875 1285.421875 4049.588623046875 1285.26123046875 4049.588623046875 C 1284.566528320312 4049.588623046875 1284 4049.015869140625 1284 4048.314208984375 C 1284 4048.14111328125 1284.033569335938 4047.974365234375 1284.099731445312 4047.81787109375 L 1283.998046875 4047.7119140625 L 1284 4030.00048828125 C 1284 4028.89697265625 1284.897094726562 4027.999755859375 1286.000610351562 4027.999755859375 L 1305.645629882812 4027.999755859375 C 1306.748168945312 4027.999755859375 1307.645263671875 4028.89697265625 1307.645263671875 4030.00048828125 L 1307.645263671875 4042.914306640625 C 1307.645263671875 4044.016845703125 1306.748168945312 4044.9140625 1305.645629882812 4044.9140625 L 1290.3466796875 4044.9140625 L 1285.817504882812 4049.590576171875 Z M 1286.954711914062 4031.082763671875 L 1286.954711914062 4043.9345703125 L 1288.9248046875 4041.87890625 L 1304.690673828125 4041.87890625 L 1304.690673828125 4031.082763671875 L 1286.954711914062 4031.082763671875 Z" stroke="none" fill="#1e488e"/>
  </g>
</svg>
