<svg xmlns="http://www.w3.org/2000/svg" width="30.664" height="19.825" viewBox="0 0 30.664 19.825">
  <path id="Path_10308" data-name="Path 10308" d="M27.968,0H2.694A2.7,2.7,0,0,0,0,2.693V17.128a2.7,2.7,0,0,0,2.694,2.7H27.968a2.7,2.7,0,0,0,2.7-2.7V2.693A2.7,2.7,0,0,0,27.968,0M15.871,10.15a.906.906,0,0,1-1.08,0c-.055-.042-.257-.195-11.193-8.356H27.063L15.871,10.15m13,6.977a.9.9,0,0,1-.9.9H2.694a.9.9,0,0,1-.9-.9V2.693h0l9.438,7.043-7.182,4.79a.9.9,0,1,0,1,1.495l7.711-5.142.952.711a2.709,2.709,0,0,0,3.233,0l.956-.715,7.772,5.145a.9.9,0,0,0,.992-1.5l-7.236-4.79,9.434-7.041h0Z" transform="translate(0 0.001)" fill="#fff" fill-rule="evenodd" opacity="0.26"/>
</svg>
